<?xml version="1.0" encoding="UTF-8" standalone="no"?>
<!DOCTYPE svg PUBLIC "-//W3C//DTD SVG 1.1//EN"
 "http://www.w3.org/Graphics/SVG/1.1/DTD/svg11.dtd">
<!-- Generated by graphviz version 2.47.0 (20210316.0004)
 -->
<!-- Title: dependencies Pages: 1 -->
<svg width="504pt" height="284pt"
 viewBox="0.00 0.00 504.00 284.00" xmlns="http://www.w3.org/2000/svg" xmlns:xlink="http://www.w3.org/1999/xlink">
<g id="graph0" class="graph" transform="scale(1 1) rotate(0) translate(4 280)">
<title>dependencies</title>
<polygon fill="white" stroke="transparent" points="-4,4 -4,-280 500,-280 500,4 -4,4"/>
<text text-anchor="start" x="227.01" y="-42.4" font-family="Times-12" font-weight="bold" font-size="14.00">Legend</text>
<polygon fill="#ffffb3" stroke="transparent" points="14,-10 14,-30 34,-30 34,-10 14,-10"/>
<text text-anchor="start" x="37.63" y="-15.4" font-family="Times-12" font-size="14.00"> &#160;Declarations</text>
<polygon fill="#8dd3c7" stroke="transparent" points="127,-10 127,-30 147,-30 147,-10 127,-10"/>
<text text-anchor="start" x="150.73" y="-15.4" font-family="Times-12" font-size="14.00"> &#160;Module</text>
<polygon fill="#80b1d3" stroke="transparent" points="213,-10 213,-30 233,-30 233,-10 213,-10"/>
<text text-anchor="start" x="236.78" y="-15.4" font-family="Times-12" font-size="14.00"> &#160;Bootstrap</text>
<polygon fill="#fdb462" stroke="transparent" points="310,-10 310,-30 330,-30 330,-10 310,-10"/>
<text text-anchor="start" x="333.67" y="-15.4" font-family="Times-12" font-size="14.00"> &#160;Providers</text>
<polygon fill="#fb8072" stroke="transparent" points="406,-10 406,-30 426,-30 426,-10 406,-10"/>
<text text-anchor="start" x="429.73" y="-15.4" font-family="Times-12" font-size="14.00"> &#160;Exports</text>
<g id="clust1" class="cluster">
<title>cluster_SettingsModule</title>
<polygon fill="none" stroke="black" stroke-dasharray="1,5" points="36,-70 36,-268 460,-268 460,-70 36,-70"/>
</g>
<g id="clust4" class="cluster">
<title>cluster_SettingsModule_exports</title>
<polygon fill="none" stroke="black" points="58,-208 58,-260 427,-260 427,-208 58,-208"/>
</g>
<g id="clust3" class="cluster">
<title>cluster_SettingsModule_imports</title>
<polygon fill="none" stroke="black" points="210,-78 210,-130 452,-130 452,-78 210,-78"/>
</g>
<g id="clust6" class="cluster">
<title>cluster_SettingsModule_providers</title>
<polygon fill="none" stroke="black" points="44,-78 44,-130 202,-130 202,-78 44,-78"/>
</g>
<!-- RelationalSettingsPersistenceModule -->
<g id="node1" class="node">
<title>RelationalSettingsPersistenceModule</title>
<polygon fill="#8dd3c7" stroke="black" points="443.68,-122 440.68,-126 419.68,-126 416.68,-122 218.32,-122 218.32,-86 443.68,-86 443.68,-122"/>
<text text-anchor="middle" x="331" y="-99.8" font-family="Times,serif" font-size="14.00">RelationalSettingsPersistenceModule</text>
</g>
<!-- SettingsModule -->
<g id="node2" class="node">
<title>SettingsModule</title>
<polygon fill="#8dd3c7" stroke="black" points="185.16,-187 182.16,-191 161.16,-191 158.16,-187 80.84,-187 80.84,-151 185.16,-151 185.16,-187"/>
<text text-anchor="middle" x="133" y="-164.8" font-family="Times,serif" font-size="14.00">SettingsModule</text>
</g>
<!-- RelationalSettingsPersistenceModule&#45;&gt;SettingsModule -->
<g id="edge1" class="edge">
<title>RelationalSettingsPersistenceModule&#45;&gt;SettingsModule</title>
<path fill="none" stroke="black" d="M318.88,-122.11C318.88,-141.34 318.88,-169 318.88,-169 318.88,-169 195.27,-169 195.27,-169"/>
<polygon fill="black" stroke="black" points="195.27,-165.5 185.27,-169 195.27,-172.5 195.27,-165.5"/>
</g>
<!-- RelationalSettingsPersistenceModule  -->
<g id="node3" class="node">
<title>RelationalSettingsPersistenceModule </title>
<polygon fill="#fb8072" stroke="black" points="419.18,-252 190.82,-252 190.82,-216 419.18,-216 419.18,-252"/>
<text text-anchor="middle" x="305" y="-229.8" font-family="Times,serif" font-size="14.00">RelationalSettingsPersistenceModule </text>
</g>
<!-- SettingsModule&#45;&gt;RelationalSettingsPersistenceModule  -->
<g id="edge2" class="edge">
<title>SettingsModule&#45;&gt;RelationalSettingsPersistenceModule </title>
<path fill="none" stroke="black" stroke-dasharray="5,2" d="M178.81,-187.11C178.81,-206.34 178.81,-234 178.81,-234 178.81,-234 180.46,-234 180.46,-234"/>
<polygon fill="black" stroke="black" points="180.46,-237.5 190.46,-234 180.46,-230.5 180.46,-237.5"/>
</g>
<!-- SettingsService  -->
<g id="node4" class="node">
<title>SettingsService </title>
<polygon fill="#fb8072" stroke="black" points="172.09,-252 65.91,-252 65.91,-216 172.09,-216 172.09,-252"/>
<text text-anchor="middle" x="119" y="-229.8" font-family="Times,serif" font-size="14.00">SettingsService </text>
</g>
<!-- SettingsModule&#45;&gt;SettingsService  -->
<g id="edge3" class="edge">
<title>SettingsModule&#45;&gt;SettingsService </title>
<path fill="none" stroke="black" stroke-dasharray="5,2" d="M126.48,-187.11C126.48,-187.11 126.48,-205.99 126.48,-205.99"/>
<polygon fill="black" stroke="black" points="122.98,-205.99 126.48,-215.99 129.98,-205.99 122.98,-205.99"/>
</g>
<!-- SettingsService -->
<g id="node5" class="node">
<title>SettingsService</title>
<ellipse fill="#fdb462" stroke="black" cx="123" cy="-104" rx="71.22" ry="18"/>
<text text-anchor="middle" x="123" y="-99.8" font-family="Times,serif" font-size="14.00">SettingsService</text>
</g>
<!-- SettingsService&#45;&gt;SettingsModule -->
<g id="edge4" class="edge">
<title>SettingsService&#45;&gt;SettingsModule</title>
<path fill="none" stroke="black" d="M133,-122.11C133,-122.11 133,-140.99 133,-140.99"/>
<polygon fill="black" stroke="black" points="129.5,-140.99 133,-150.99 136.5,-140.99 129.5,-140.99"/>
</g>
</g>
</svg>
