<?xml version="1.0" encoding="UTF-8" standalone="no"?>
<!DOCTYPE svg PUBLIC "-//W3C//DTD SVG 1.1//EN"
 "http://www.w3.org/Graphics/SVG/1.1/DTD/svg11.dtd">
<!-- Generated by graphviz version 2.47.0 (20210316.0004)
 -->
<!-- Title: dependencies Pages: 1 -->
<svg width="504pt" height="284pt"
 viewBox="0.00 0.00 504.00 284.00" xmlns="http://www.w3.org/2000/svg" xmlns:xlink="http://www.w3.org/1999/xlink">
<g id="graph0" class="graph" transform="scale(1 1) rotate(0) translate(4 280)">
<title>dependencies</title>
<polygon fill="white" stroke="transparent" points="-4,4 -4,-280 500,-280 500,4 -4,4"/>
<text text-anchor="start" x="227.01" y="-42.4" font-family="Times-12" font-weight="bold" font-size="14.00">Legend</text>
<polygon fill="#ffffb3" stroke="transparent" points="14,-10 14,-30 34,-30 34,-10 14,-10"/>
<text text-anchor="start" x="37.63" y="-15.4" font-family="Times-12" font-size="14.00"> &#160;Declarations</text>
<polygon fill="#8dd3c7" stroke="transparent" points="127,-10 127,-30 147,-30 147,-10 127,-10"/>
<text text-anchor="start" x="150.73" y="-15.4" font-family="Times-12" font-size="14.00"> &#160;Module</text>
<polygon fill="#80b1d3" stroke="transparent" points="213,-10 213,-30 233,-30 233,-10 213,-10"/>
<text text-anchor="start" x="236.78" y="-15.4" font-family="Times-12" font-size="14.00"> &#160;Bootstrap</text>
<polygon fill="#fdb462" stroke="transparent" points="310,-10 310,-30 330,-30 330,-10 310,-10"/>
<text text-anchor="start" x="333.67" y="-15.4" font-family="Times-12" font-size="14.00"> &#160;Providers</text>
<polygon fill="#fb8072" stroke="transparent" points="406,-10 406,-30 426,-30 426,-10 406,-10"/>
<text text-anchor="start" x="429.73" y="-15.4" font-family="Times-12" font-size="14.00"> &#160;Exports</text>
<g id="clust1" class="cluster">
<title>cluster_AuthFacebookModule</title>
<polygon fill="none" stroke="black" stroke-dasharray="1,5" points="79,-70 79,-268 417,-268 417,-70 79,-70"/>
</g>
<g id="clust3" class="cluster">
<title>cluster_AuthFacebookModule_imports</title>
<polygon fill="none" stroke="black" points="305,-78 305,-130 409,-130 409,-78 305,-78"/>
</g>
<g id="clust4" class="cluster">
<title>cluster_AuthFacebookModule_exports</title>
<polygon fill="none" stroke="black" points="180,-208 180,-260 340,-260 340,-208 180,-208"/>
</g>
<g id="clust6" class="cluster">
<title>cluster_AuthFacebookModule_providers</title>
<polygon fill="none" stroke="black" points="87,-78 87,-130 297,-130 297,-78 87,-78"/>
</g>
<!-- AuthModule -->
<g id="node1" class="node">
<title>AuthModule</title>
<polygon fill="#8dd3c7" stroke="black" points="400.55,-122 397.55,-126 376.55,-126 373.55,-122 313.45,-122 313.45,-86 400.55,-86 400.55,-122"/>
<text text-anchor="middle" x="357" y="-99.8" font-family="Times,serif" font-size="14.00">AuthModule</text>
</g>
<!-- AuthFacebookModule -->
<g id="node2" class="node">
<title>AuthFacebookModule</title>
<polygon fill="#8dd3c7" stroke="black" points="330.97,-187 327.97,-191 306.97,-191 303.97,-187 189.03,-187 189.03,-151 330.97,-151 330.97,-187"/>
<text text-anchor="middle" x="260" y="-164.8" font-family="Times,serif" font-size="14.00">AuthFacebookModule</text>
</g>
<!-- AuthModule&#45;&gt;AuthFacebookModule -->
<g id="edge1" class="edge">
<title>AuthModule&#45;&gt;AuthFacebookModule</title>
<path fill="none" stroke="black" d="M322.11,-122.11C322.11,-122.11 322.11,-140.99 322.11,-140.99"/>
<polygon fill="black" stroke="black" points="318.61,-140.99 322.11,-150.99 325.61,-140.99 318.61,-140.99"/>
</g>
<!-- AuthFacebookService  -->
<g id="node3" class="node">
<title>AuthFacebookService </title>
<polygon fill="#fb8072" stroke="black" points="331.9,-252 188.1,-252 188.1,-216 331.9,-216 331.9,-252"/>
<text text-anchor="middle" x="260" y="-229.8" font-family="Times,serif" font-size="14.00">AuthFacebookService </text>
</g>
<!-- AuthFacebookModule&#45;&gt;AuthFacebookService  -->
<g id="edge2" class="edge">
<title>AuthFacebookModule&#45;&gt;AuthFacebookService </title>
<path fill="none" stroke="black" stroke-dasharray="5,2" d="M260,-187.11C260,-187.11 260,-205.99 260,-205.99"/>
<polygon fill="black" stroke="black" points="256.5,-205.99 260,-215.99 263.5,-205.99 256.5,-205.99"/>
</g>
<!-- AuthFacebookService -->
<g id="node4" class="node">
<title>AuthFacebookService</title>
<ellipse fill="#fdb462" stroke="black" cx="192" cy="-104" rx="96.69" ry="18"/>
<text text-anchor="middle" x="192" y="-99.8" font-family="Times,serif" font-size="14.00">AuthFacebookService</text>
</g>
<!-- AuthFacebookService&#45;&gt;AuthFacebookModule -->
<g id="edge3" class="edge">
<title>AuthFacebookService&#45;&gt;AuthFacebookModule</title>
<path fill="none" stroke="black" d="M238.93,-120.07C238.93,-120.07 238.93,-140.82 238.93,-140.82"/>
<polygon fill="black" stroke="black" points="235.43,-140.82 238.93,-150.82 242.43,-140.82 235.43,-140.82"/>
</g>
</g>
</svg>
