<?xml version="1.0" encoding="UTF-8" standalone="no"?>
<!DOCTYPE svg PUBLIC "-//W3C//DTD SVG 1.1//EN"
 "http://www.w3.org/Graphics/SVG/1.1/DTD/svg11.dtd">
<!-- Generated by graphviz version 2.47.0 (20210316.0004)
 -->
<!-- Title: dependencies Pages: 1 -->
<svg width="504pt" height="284pt"
 viewBox="0.00 0.00 504.00 284.00" xmlns="http://www.w3.org/2000/svg" xmlns:xlink="http://www.w3.org/1999/xlink">
<g id="graph0" class="graph" transform="scale(1 1) rotate(0) translate(4 280)">
<title>dependencies</title>
<polygon fill="white" stroke="transparent" points="-4,4 -4,-280 500,-280 500,4 -4,4"/>
<text text-anchor="start" x="227.01" y="-42.4" font-family="Times-12" font-weight="bold" font-size="14.00">Legend</text>
<polygon fill="#ffffb3" stroke="transparent" points="14,-10 14,-30 34,-30 34,-10 14,-10"/>
<text text-anchor="start" x="37.63" y="-15.4" font-family="Times-12" font-size="14.00"> &#160;Declarations</text>
<polygon fill="#8dd3c7" stroke="transparent" points="127,-10 127,-30 147,-30 147,-10 127,-10"/>
<text text-anchor="start" x="150.73" y="-15.4" font-family="Times-12" font-size="14.00"> &#160;Module</text>
<polygon fill="#80b1d3" stroke="transparent" points="213,-10 213,-30 233,-30 233,-10 213,-10"/>
<text text-anchor="start" x="236.78" y="-15.4" font-family="Times-12" font-size="14.00"> &#160;Bootstrap</text>
<polygon fill="#fdb462" stroke="transparent" points="310,-10 310,-30 330,-30 330,-10 310,-10"/>
<text text-anchor="start" x="333.67" y="-15.4" font-family="Times-12" font-size="14.00"> &#160;Providers</text>
<polygon fill="#fb8072" stroke="transparent" points="406,-10 406,-30 426,-30 426,-10 406,-10"/>
<text text-anchor="start" x="429.73" y="-15.4" font-family="Times-12" font-size="14.00"> &#160;Exports</text>
<g id="clust1" class="cluster">
<title>cluster_UsersModule</title>
<polygon fill="none" stroke="black" stroke-dasharray="1,5" points="53,-70 53,-268 443,-268 443,-70 53,-70"/>
</g>
<g id="clust6" class="cluster">
<title>cluster_UsersModule_providers</title>
<polygon fill="none" stroke="black" points="295,-78 295,-130 435,-130 435,-78 295,-78"/>
</g>
<g id="clust3" class="cluster">
<title>cluster_UsersModule_imports</title>
<polygon fill="none" stroke="black" points="61,-78 61,-130 287,-130 287,-78 61,-78"/>
</g>
<g id="clust4" class="cluster">
<title>cluster_UsersModule_exports</title>
<polygon fill="none" stroke="black" points="181,-208 181,-260 291,-260 291,-208 181,-208"/>
</g>
<!-- FilesModule -->
<g id="node1" class="node">
<title>FilesModule</title>
<polygon fill="#8dd3c7" stroke="black" points="279.27,-122 276.27,-126 255.27,-126 252.27,-122 192.73,-122 192.73,-86 279.27,-86 279.27,-122"/>
<text text-anchor="middle" x="236" y="-99.8" font-family="Times,serif" font-size="14.00">FilesModule</text>
</g>
<!-- UsersModule -->
<g id="node3" class="node">
<title>UsersModule</title>
<polygon fill="#8dd3c7" stroke="black" points="281.92,-187 278.92,-191 257.92,-191 254.92,-187 190.08,-187 190.08,-151 281.92,-151 281.92,-187"/>
<text text-anchor="middle" x="236" y="-164.8" font-family="Times,serif" font-size="14.00">UsersModule</text>
</g>
<!-- FilesModule&#45;&gt;UsersModule -->
<g id="edge1" class="edge">
<title>FilesModule&#45;&gt;UsersModule</title>
<path fill="none" stroke="black" d="M236,-122.11C236,-122.11 236,-140.99 236,-140.99"/>
<polygon fill="black" stroke="black" points="232.5,-140.99 236,-150.99 239.5,-140.99 232.5,-140.99"/>
</g>
<!-- RegionsModule -->
<g id="node2" class="node">
<title>RegionsModule</title>
<polygon fill="#8dd3c7" stroke="black" points="174.94,-122 171.94,-126 150.94,-126 147.94,-122 69.06,-122 69.06,-86 174.94,-86 174.94,-122"/>
<text text-anchor="middle" x="122" y="-99.8" font-family="Times,serif" font-size="14.00">RegionsModule</text>
</g>
<!-- RegionsModule&#45;&gt;UsersModule -->
<g id="edge2" class="edge">
<title>RegionsModule&#45;&gt;UsersModule</title>
<path fill="none" stroke="black" d="M122,-122.11C122,-141.34 122,-169 122,-169 122,-169 180.29,-169 180.29,-169"/>
<polygon fill="black" stroke="black" points="180.29,-172.5 190.29,-169 180.29,-165.5 180.29,-172.5"/>
</g>
<!-- UsersService  -->
<g id="node4" class="node">
<title>UsersService </title>
<polygon fill="#fb8072" stroke="black" points="282.85,-252 189.15,-252 189.15,-216 282.85,-216 282.85,-252"/>
<text text-anchor="middle" x="236" y="-229.8" font-family="Times,serif" font-size="14.00">UsersService </text>
</g>
<!-- UsersModule&#45;&gt;UsersService  -->
<g id="edge3" class="edge">
<title>UsersModule&#45;&gt;UsersService </title>
<path fill="none" stroke="black" stroke-dasharray="5,2" d="M236,-187.11C236,-187.11 236,-205.99 236,-205.99"/>
<polygon fill="black" stroke="black" points="232.5,-205.99 236,-215.99 239.5,-205.99 232.5,-205.99"/>
</g>
<!-- UsersService -->
<g id="node5" class="node">
<title>UsersService</title>
<ellipse fill="#fdb462" stroke="black" cx="365" cy="-104" rx="61.95" ry="18"/>
<text text-anchor="middle" x="365" y="-99.8" font-family="Times,serif" font-size="14.00">UsersService</text>
</g>
<!-- UsersService&#45;&gt;UsersModule -->
<g id="edge4" class="edge">
<title>UsersService&#45;&gt;UsersModule</title>
<path fill="none" stroke="black" d="M365,-122.11C365,-141.34 365,-169 365,-169 365,-169 291.84,-169 291.84,-169"/>
<polygon fill="black" stroke="black" points="291.84,-165.5 281.84,-169 291.84,-172.5 291.84,-165.5"/>
</g>
</g>
</svg>
