<?xml version="1.0" encoding="UTF-8" standalone="no"?>
<!DOCTYPE svg PUBLIC "-//W3C//DTD SVG 1.1//EN"
 "http://www.w3.org/Graphics/SVG/1.1/DTD/svg11.dtd">
<!-- Generated by graphviz version 2.47.0 (20210316.0004)
 -->
<!-- Title: dependencies Pages: 1 -->
<svg width="504pt" height="284pt"
 viewBox="0.00 0.00 504.00 284.00" xmlns="http://www.w3.org/2000/svg" xmlns:xlink="http://www.w3.org/1999/xlink">
<g id="graph0" class="graph" transform="scale(1 1) rotate(0) translate(4 280)">
<title>dependencies</title>
<polygon fill="white" stroke="transparent" points="-4,4 -4,-280 500,-280 500,4 -4,4"/>
<text text-anchor="start" x="227.01" y="-42.4" font-family="Times-12" font-weight="bold" font-size="14.00">Legend</text>
<polygon fill="#ffffb3" stroke="transparent" points="14,-10 14,-30 34,-30 34,-10 14,-10"/>
<text text-anchor="start" x="37.63" y="-15.4" font-family="Times-12" font-size="14.00"> &#160;Declarations</text>
<polygon fill="#8dd3c7" stroke="transparent" points="127,-10 127,-30 147,-30 147,-10 127,-10"/>
<text text-anchor="start" x="150.73" y="-15.4" font-family="Times-12" font-size="14.00"> &#160;Module</text>
<polygon fill="#80b1d3" stroke="transparent" points="213,-10 213,-30 233,-30 233,-10 213,-10"/>
<text text-anchor="start" x="236.78" y="-15.4" font-family="Times-12" font-size="14.00"> &#160;Bootstrap</text>
<polygon fill="#fdb462" stroke="transparent" points="310,-10 310,-30 330,-30 330,-10 310,-10"/>
<text text-anchor="start" x="333.67" y="-15.4" font-family="Times-12" font-size="14.00"> &#160;Providers</text>
<polygon fill="#fb8072" stroke="transparent" points="406,-10 406,-30 426,-30 426,-10 406,-10"/>
<text text-anchor="start" x="429.73" y="-15.4" font-family="Times-12" font-size="14.00"> &#160;Exports</text>
<g id="clust1" class="cluster">
<title>cluster_MailModule</title>
<polygon fill="none" stroke="black" stroke-dasharray="1,5" points="114,-70 114,-268 382,-268 382,-70 114,-70"/>
</g>
<g id="clust4" class="cluster">
<title>cluster_MailModule_exports</title>
<polygon fill="none" stroke="black" points="201,-208 201,-260 305,-260 305,-208 201,-208"/>
</g>
<g id="clust3" class="cluster">
<title>cluster_MailModule_imports</title>
<polygon fill="none" stroke="black" points="262,-78 262,-130 374,-130 374,-78 262,-78"/>
</g>
<g id="clust6" class="cluster">
<title>cluster_MailModule_providers</title>
<polygon fill="none" stroke="black" points="122,-78 122,-130 254,-130 254,-78 122,-78"/>
</g>
<!-- MailerModule -->
<g id="node1" class="node">
<title>MailerModule</title>
<polygon fill="#8dd3c7" stroke="black" points="366.37,-122 363.37,-126 342.37,-126 339.37,-122 269.63,-122 269.63,-86 366.37,-86 366.37,-122"/>
<text text-anchor="middle" x="318" y="-99.8" font-family="Times,serif" font-size="14.00">MailerModule</text>
</g>
<!-- MailModule -->
<g id="node2" class="node">
<title>MailModule</title>
<polygon fill="#8dd3c7" stroke="black" points="295.99,-187 292.99,-191 271.99,-191 268.99,-187 210.01,-187 210.01,-151 295.99,-151 295.99,-187"/>
<text text-anchor="middle" x="253" y="-164.8" font-family="Times,serif" font-size="14.00">MailModule</text>
</g>
<!-- MailerModule&#45;&gt;MailModule -->
<g id="edge1" class="edge">
<title>MailerModule&#45;&gt;MailModule</title>
<path fill="none" stroke="black" d="M282.78,-122.11C282.78,-122.11 282.78,-140.99 282.78,-140.99"/>
<polygon fill="black" stroke="black" points="279.28,-140.99 282.78,-150.99 286.28,-140.99 279.28,-140.99"/>
</g>
<!-- MailService  -->
<g id="node3" class="node">
<title>MailService </title>
<polygon fill="#fb8072" stroke="black" points="296.92,-252 209.08,-252 209.08,-216 296.92,-216 296.92,-252"/>
<text text-anchor="middle" x="253" y="-229.8" font-family="Times,serif" font-size="14.00">MailService </text>
</g>
<!-- MailModule&#45;&gt;MailService  -->
<g id="edge2" class="edge">
<title>MailModule&#45;&gt;MailService </title>
<path fill="none" stroke="black" stroke-dasharray="5,2" d="M253,-187.11C253,-187.11 253,-205.99 253,-205.99"/>
<polygon fill="black" stroke="black" points="249.5,-205.99 253,-215.99 256.5,-205.99 249.5,-205.99"/>
</g>
<!-- MailService -->
<g id="node4" class="node">
<title>MailService</title>
<ellipse fill="#fdb462" stroke="black" cx="188" cy="-104" rx="58.46" ry="18"/>
<text text-anchor="middle" x="188" y="-99.8" font-family="Times,serif" font-size="14.00">MailService</text>
</g>
<!-- MailService&#45;&gt;MailModule -->
<g id="edge3" class="edge">
<title>MailService&#45;&gt;MailModule</title>
<path fill="none" stroke="black" d="M228.12,-117.15C228.12,-117.15 228.12,-140.69 228.12,-140.69"/>
<polygon fill="black" stroke="black" points="224.62,-140.69 228.12,-150.69 231.62,-140.69 224.62,-140.69"/>
</g>
</g>
</svg>
