<?xml version="1.0" encoding="UTF-8" standalone="no"?>
<!DOCTYPE svg PUBLIC "-//W3C//DTD SVG 1.1//EN"
 "http://www.w3.org/Graphics/SVG/1.1/DTD/svg11.dtd">
<!-- Generated by graphviz version 2.47.0 (20210316.0004)
 -->
<!-- Title: dependencies Pages: 1 -->
<svg width="1036pt" height="284pt"
 viewBox="0.00 0.00 1036.00 284.00" xmlns="http://www.w3.org/2000/svg" xmlns:xlink="http://www.w3.org/1999/xlink">
<g id="graph0" class="graph" transform="scale(1 1) rotate(0) translate(4 280)">
<title>dependencies</title>
<polygon fill="white" stroke="transparent" points="-4,4 -4,-280 1032,-280 1032,4 -4,4"/>
<text text-anchor="start" x="493.01" y="-42.4" font-family="Times-12" font-weight="bold" font-size="14.00">Legend</text>
<polygon fill="#ffffb3" stroke="transparent" points="280,-10 280,-30 300,-30 300,-10 280,-10"/>
<text text-anchor="start" x="303.63" y="-15.4" font-family="Times-12" font-size="14.00"> &#160;Declarations</text>
<polygon fill="#8dd3c7" stroke="transparent" points="393,-10 393,-30 413,-30 413,-10 393,-10"/>
<text text-anchor="start" x="416.73" y="-15.4" font-family="Times-12" font-size="14.00"> &#160;Module</text>
<polygon fill="#80b1d3" stroke="transparent" points="479,-10 479,-30 499,-30 499,-10 479,-10"/>
<text text-anchor="start" x="502.78" y="-15.4" font-family="Times-12" font-size="14.00"> &#160;Bootstrap</text>
<polygon fill="#fdb462" stroke="transparent" points="576,-10 576,-30 596,-30 596,-10 576,-10"/>
<text text-anchor="start" x="599.67" y="-15.4" font-family="Times-12" font-size="14.00"> &#160;Providers</text>
<polygon fill="#fb8072" stroke="transparent" points="672,-10 672,-30 692,-30 692,-10 672,-10"/>
<text text-anchor="start" x="695.73" y="-15.4" font-family="Times-12" font-size="14.00"> &#160;Exports</text>
<g id="clust1" class="cluster">
<title>cluster_AuthModule</title>
<polygon fill="none" stroke="black" stroke-dasharray="1,5" points="8,-70 8,-268 1020,-268 1020,-70 8,-70"/>
</g>
<g id="clust3" class="cluster">
<title>cluster_AuthModule_imports</title>
<polygon fill="none" stroke="black" points="680,-78 680,-130 1012,-130 1012,-78 680,-78"/>
</g>
<g id="clust4" class="cluster">
<title>cluster_AuthModule_exports</title>
<polygon fill="none" stroke="black" points="521,-208 521,-260 627,-260 627,-208 521,-208"/>
</g>
<g id="clust6" class="cluster">
<title>cluster_AuthModule_providers</title>
<polygon fill="none" stroke="black" points="16,-78 16,-130 672,-130 672,-78 16,-78"/>
</g>
<!-- MailModule -->
<g id="node1" class="node">
<title>MailModule</title>
<polygon fill="#8dd3c7" stroke="black" points="1003.99,-122 1000.99,-126 979.99,-126 976.99,-122 918.01,-122 918.01,-86 1003.99,-86 1003.99,-122"/>
<text text-anchor="middle" x="961" y="-99.8" font-family="Times,serif" font-size="14.00">MailModule</text>
</g>
<!-- AuthModule -->
<g id="node4" class="node">
<title>AuthModule</title>
<polygon fill="#8dd3c7" stroke="black" points="617.55,-187 614.55,-191 593.55,-191 590.55,-187 530.45,-187 530.45,-151 617.55,-151 617.55,-187"/>
<text text-anchor="middle" x="574" y="-164.8" font-family="Times,serif" font-size="14.00">AuthModule</text>
</g>
<!-- MailModule&#45;&gt;AuthModule -->
<g id="edge1" class="edge">
<title>MailModule&#45;&gt;AuthModule</title>
<path fill="none" stroke="black" d="M961,-122.29C961,-144.21 961,-178 961,-178 961,-178 627.64,-178 627.64,-178"/>
<polygon fill="black" stroke="black" points="627.64,-174.5 617.64,-178 627.64,-181.5 627.64,-174.5"/>
</g>
<!-- SessionModule -->
<g id="node2" class="node">
<title>SessionModule</title>
<polygon fill="#8dd3c7" stroke="black" points="900.33,-122 897.33,-126 876.33,-126 873.33,-122 797.67,-122 797.67,-86 900.33,-86 900.33,-122"/>
<text text-anchor="middle" x="849" y="-99.8" font-family="Times,serif" font-size="14.00">SessionModule</text>
</g>
<!-- SessionModule&#45;&gt;AuthModule -->
<g id="edge2" class="edge">
<title>SessionModule&#45;&gt;AuthModule</title>
<path fill="none" stroke="black" d="M849,-122.11C849,-141.34 849,-169 849,-169 849,-169 627.57,-169 627.57,-169"/>
<polygon fill="black" stroke="black" points="627.57,-165.5 617.57,-169 627.57,-172.5 627.57,-165.5"/>
</g>
<!-- UsersModule -->
<g id="node3" class="node">
<title>UsersModule</title>
<polygon fill="#8dd3c7" stroke="black" points="779.92,-122 776.92,-126 755.92,-126 752.92,-122 688.08,-122 688.08,-86 779.92,-86 779.92,-122"/>
<text text-anchor="middle" x="734" y="-99.8" font-family="Times,serif" font-size="14.00">UsersModule</text>
</g>
<!-- UsersModule&#45;&gt;AuthModule -->
<g id="edge3" class="edge">
<title>UsersModule&#45;&gt;AuthModule</title>
<path fill="none" stroke="black" d="M734,-122.03C734,-138.4 734,-160 734,-160 734,-160 627.72,-160 627.72,-160"/>
<polygon fill="black" stroke="black" points="627.72,-156.5 617.72,-160 627.72,-163.5 627.72,-156.5"/>
</g>
<!-- AuthService  -->
<g id="node5" class="node">
<title>AuthService </title>
<polygon fill="#fb8072" stroke="black" points="618.98,-252 529.02,-252 529.02,-216 618.98,-216 618.98,-252"/>
<text text-anchor="middle" x="574" y="-229.8" font-family="Times,serif" font-size="14.00">AuthService </text>
</g>
<!-- AuthModule&#45;&gt;AuthService  -->
<g id="edge4" class="edge">
<title>AuthModule&#45;&gt;AuthService </title>
<path fill="none" stroke="black" stroke-dasharray="5,2" d="M574,-187.11C574,-187.11 574,-205.99 574,-205.99"/>
<polygon fill="black" stroke="black" points="570.5,-205.99 574,-215.99 577.5,-205.99 570.5,-205.99"/>
</g>
<!-- AnonymousStrategy -->
<g id="node6" class="node">
<title>AnonymousStrategy</title>
<ellipse fill="#fdb462" stroke="black" cx="574" cy="-104" rx="90.35" ry="18"/>
<text text-anchor="middle" x="574" y="-99.8" font-family="Times,serif" font-size="14.00">AnonymousStrategy</text>
</g>
<!-- AnonymousStrategy&#45;&gt;AuthModule -->
<g id="edge5" class="edge">
<title>AnonymousStrategy&#45;&gt;AuthModule</title>
<path fill="none" stroke="black" d="M574,-122.11C574,-122.11 574,-140.99 574,-140.99"/>
<polygon fill="black" stroke="black" points="570.5,-140.99 574,-150.99 577.5,-140.99 570.5,-140.99"/>
</g>
<!-- AuthService -->
<g id="node7" class="node">
<title>AuthService</title>
<ellipse fill="#fdb462" stroke="black" cx="406" cy="-104" rx="59.11" ry="18"/>
<text text-anchor="middle" x="406" y="-99.8" font-family="Times,serif" font-size="14.00">AuthService</text>
</g>
<!-- AuthService&#45;&gt;AuthModule -->
<g id="edge6" class="edge">
<title>AuthService&#45;&gt;AuthModule</title>
<path fill="none" stroke="black" d="M406,-122.03C406,-138.4 406,-160 406,-160 406,-160 520.3,-160 520.3,-160"/>
<polygon fill="black" stroke="black" points="520.3,-163.5 530.3,-160 520.3,-156.5 520.3,-163.5"/>
</g>
<!-- JwtRefreshStrategy -->
<g id="node8" class="node">
<title>JwtRefreshStrategy</title>
<ellipse fill="#fdb462" stroke="black" cx="242" cy="-104" rx="86.81" ry="18"/>
<text text-anchor="middle" x="242" y="-99.8" font-family="Times,serif" font-size="14.00">JwtRefreshStrategy</text>
</g>
<!-- JwtRefreshStrategy&#45;&gt;AuthModule -->
<g id="edge7" class="edge">
<title>JwtRefreshStrategy&#45;&gt;AuthModule</title>
<path fill="none" stroke="black" d="M242,-122.11C242,-141.34 242,-169 242,-169 242,-169 520.26,-169 520.26,-169"/>
<polygon fill="black" stroke="black" points="520.26,-172.5 530.26,-169 520.26,-165.5 520.26,-172.5"/>
</g>
<!-- JwtStrategy -->
<g id="node9" class="node">
<title>JwtStrategy</title>
<ellipse fill="#fdb462" stroke="black" cx="81" cy="-104" rx="56.76" ry="18"/>
<text text-anchor="middle" x="81" y="-99.8" font-family="Times,serif" font-size="14.00">JwtStrategy</text>
</g>
<!-- JwtStrategy&#45;&gt;AuthModule -->
<g id="edge8" class="edge">
<title>JwtStrategy&#45;&gt;AuthModule</title>
<path fill="none" stroke="black" d="M81,-122.29C81,-144.21 81,-178 81,-178 81,-178 520.25,-178 520.25,-178"/>
<polygon fill="black" stroke="black" points="520.25,-181.5 530.25,-178 520.25,-174.5 520.25,-181.5"/>
</g>
</g>
</svg>
