<?xml version="1.0" encoding="UTF-8" standalone="no"?>
<!DOCTYPE svg PUBLIC "-//W3C//DTD SVG 1.1//EN"
 "http://www.w3.org/Graphics/SVG/1.1/DTD/svg11.dtd">
<!-- Generated by graphviz version 2.47.0 (20210316.0004)
 -->
<!-- Title: dependencies Pages: 1 -->
<svg width="840pt" height="284pt"
 viewBox="0.00 0.00 840.00 284.00" xmlns="http://www.w3.org/2000/svg" xmlns:xlink="http://www.w3.org/1999/xlink">
<g id="graph0" class="graph" transform="scale(1 1) rotate(0) translate(4 280)">
<title>dependencies</title>
<polygon fill="white" stroke="transparent" points="-4,4 -4,-280 836,-280 836,4 -4,4"/>
<text text-anchor="start" x="395.01" y="-42.4" font-family="Times-12" font-weight="bold" font-size="14.00">Legend</text>
<polygon fill="#ffffb3" stroke="transparent" points="182,-10 182,-30 202,-30 202,-10 182,-10"/>
<text text-anchor="start" x="205.63" y="-15.4" font-family="Times-12" font-size="14.00"> &#160;Declarations</text>
<polygon fill="#8dd3c7" stroke="transparent" points="295,-10 295,-30 315,-30 315,-10 295,-10"/>
<text text-anchor="start" x="318.73" y="-15.4" font-family="Times-12" font-size="14.00"> &#160;Module</text>
<polygon fill="#80b1d3" stroke="transparent" points="381,-10 381,-30 401,-30 401,-10 381,-10"/>
<text text-anchor="start" x="404.78" y="-15.4" font-family="Times-12" font-size="14.00"> &#160;Bootstrap</text>
<polygon fill="#fdb462" stroke="transparent" points="478,-10 478,-30 498,-30 498,-10 478,-10"/>
<text text-anchor="start" x="501.67" y="-15.4" font-family="Times-12" font-size="14.00"> &#160;Providers</text>
<polygon fill="#fb8072" stroke="transparent" points="574,-10 574,-30 594,-30 594,-10 574,-10"/>
<text text-anchor="start" x="597.73" y="-15.4" font-family="Times-12" font-size="14.00"> &#160;Exports</text>
<g id="clust1" class="cluster">
<title>cluster_ResidencesModule</title>
<polygon fill="none" stroke="black" stroke-dasharray="1,5" points="8,-70 8,-268 824,-268 824,-70 8,-70"/>
</g>
<g id="clust6" class="cluster">
<title>cluster_ResidencesModule_providers</title>
<polygon fill="none" stroke="black" points="634,-78 634,-130 816,-130 816,-78 634,-78"/>
</g>
<g id="clust4" class="cluster">
<title>cluster_ResidencesModule_exports</title>
<polygon fill="none" stroke="black" points="205,-208 205,-260 605,-260 605,-208 205,-208"/>
</g>
<g id="clust3" class="cluster">
<title>cluster_ResidencesModule_imports</title>
<polygon fill="none" stroke="black" points="16,-78 16,-130 626,-130 626,-78 16,-78"/>
</g>
<!-- RegionsModule -->
<g id="node1" class="node">
<title>RegionsModule</title>
<polygon fill="#8dd3c7" stroke="black" points="617.94,-122 614.94,-126 593.94,-126 590.94,-122 512.06,-122 512.06,-86 617.94,-86 617.94,-122"/>
<text text-anchor="middle" x="565" y="-99.8" font-family="Times,serif" font-size="14.00">RegionsModule</text>
</g>
<!-- ResidencesModule -->
<g id="node5" class="node">
<title>ResidencesModule</title>
<polygon fill="#8dd3c7" stroke="black" points="436.03,-187 433.03,-191 412.03,-191 409.03,-187 313.97,-187 313.97,-151 436.03,-151 436.03,-187"/>
<text text-anchor="middle" x="375" y="-164.8" font-family="Times,serif" font-size="14.00">ResidencesModule</text>
</g>
<!-- RegionsModule&#45;&gt;ResidencesModule -->
<g id="edge1" class="edge">
<title>RegionsModule&#45;&gt;ResidencesModule</title>
<path fill="none" stroke="black" d="M554.41,-122.02C554.41,-139.37 554.41,-163 554.41,-163 554.41,-163 446.24,-163 446.24,-163"/>
<polygon fill="black" stroke="black" points="446.24,-159.5 436.24,-163 446.24,-166.5 446.24,-159.5"/>
</g>
<!-- RelationalResidencePersistenceModule -->
<g id="node2" class="node">
<title>RelationalResidencePersistenceModule</title>
<polygon fill="#8dd3c7" stroke="black" points="493.6,-122 490.6,-126 469.6,-126 466.6,-122 256.4,-122 256.4,-86 493.6,-86 493.6,-122"/>
<text text-anchor="middle" x="375" y="-99.8" font-family="Times,serif" font-size="14.00">RelationalResidencePersistenceModule</text>
</g>
<!-- RelationalResidencePersistenceModule&#45;&gt;ResidencesModule -->
<g id="edge2" class="edge">
<title>RelationalResidencePersistenceModule&#45;&gt;ResidencesModule</title>
<path fill="none" stroke="black" d="M375,-122.11C375,-122.11 375,-140.99 375,-140.99"/>
<polygon fill="black" stroke="black" points="371.5,-140.99 375,-150.99 378.5,-140.99 371.5,-140.99"/>
</g>
<!-- TenantsModule -->
<g id="node3" class="node">
<title>TenantsModule</title>
<polygon fill="#8dd3c7" stroke="black" points="237.87,-122 234.87,-126 213.87,-126 210.87,-122 134.13,-122 134.13,-86 237.87,-86 237.87,-122"/>
<text text-anchor="middle" x="186" y="-99.8" font-family="Times,serif" font-size="14.00">TenantsModule</text>
</g>
<!-- TenantsModule&#45;&gt;ResidencesModule -->
<g id="edge3" class="edge">
<title>TenantsModule&#45;&gt;ResidencesModule</title>
<path fill="none" stroke="black" d="M225.35,-122.02C225.35,-139.37 225.35,-163 225.35,-163 225.35,-163 303.7,-163 303.7,-163"/>
<polygon fill="black" stroke="black" points="303.7,-166.5 313.7,-163 303.7,-159.5 303.7,-166.5"/>
</g>
<!-- UsersModule -->
<g id="node4" class="node">
<title>UsersModule</title>
<polygon fill="#8dd3c7" stroke="black" points="115.92,-122 112.92,-126 91.92,-126 88.92,-122 24.08,-122 24.08,-86 115.92,-86 115.92,-122"/>
<text text-anchor="middle" x="70" y="-99.8" font-family="Times,serif" font-size="14.00">UsersModule</text>
</g>
<!-- UsersModule&#45;&gt;ResidencesModule -->
<g id="edge4" class="edge">
<title>UsersModule&#45;&gt;ResidencesModule</title>
<path fill="none" stroke="black" d="M70,-122.28C70,-143.32 70,-175 70,-175 70,-175 303.65,-175 303.65,-175"/>
<polygon fill="black" stroke="black" points="303.65,-178.5 313.65,-175 303.65,-171.5 303.65,-178.5"/>
</g>
<!-- RelationalResidencePersistenceModule  -->
<g id="node6" class="node">
<title>RelationalResidencePersistenceModule </title>
<polygon fill="#fb8072" stroke="black" points="596.59,-252 355.41,-252 355.41,-216 596.59,-216 596.59,-252"/>
<text text-anchor="middle" x="476" y="-229.8" font-family="Times,serif" font-size="14.00">RelationalResidencePersistenceModule </text>
</g>
<!-- ResidencesModule&#45;&gt;RelationalResidencePersistenceModule  -->
<g id="edge5" class="edge">
<title>ResidencesModule&#45;&gt;RelationalResidencePersistenceModule </title>
<path fill="none" stroke="black" stroke-dasharray="5,2" d="M395.86,-187.11C395.86,-187.11 395.86,-205.99 395.86,-205.99"/>
<polygon fill="black" stroke="black" points="392.36,-205.99 395.86,-215.99 399.36,-205.99 392.36,-205.99"/>
</g>
<!-- ResidencesService  -->
<g id="node7" class="node">
<title>ResidencesService </title>
<polygon fill="#fb8072" stroke="black" points="337.45,-252 212.55,-252 212.55,-216 337.45,-216 337.45,-252"/>
<text text-anchor="middle" x="275" y="-229.8" font-family="Times,serif" font-size="14.00">ResidencesService </text>
</g>
<!-- ResidencesModule&#45;&gt;ResidencesService  -->
<g id="edge6" class="edge">
<title>ResidencesModule&#45;&gt;ResidencesService </title>
<path fill="none" stroke="black" stroke-dasharray="5,2" d="M325.48,-187.11C325.48,-187.11 325.48,-205.99 325.48,-205.99"/>
<polygon fill="black" stroke="black" points="321.98,-205.99 325.48,-215.99 328.98,-205.99 321.98,-205.99"/>
</g>
<!-- ResidencesService -->
<g id="node8" class="node">
<title>ResidencesService</title>
<ellipse fill="#fdb462" stroke="black" cx="725" cy="-104" rx="83.36" ry="18"/>
<text text-anchor="middle" x="725" y="-99.8" font-family="Times,serif" font-size="14.00">ResidencesService</text>
</g>
<!-- ResidencesService&#45;&gt;ResidencesModule -->
<g id="edge7" class="edge">
<title>ResidencesService&#45;&gt;ResidencesModule</title>
<path fill="none" stroke="black" d="M725,-122.28C725,-143.32 725,-175 725,-175 725,-175 446.37,-175 446.37,-175"/>
<polygon fill="black" stroke="black" points="446.37,-171.5 436.37,-175 446.37,-178.5 446.37,-171.5"/>
</g>
</g>
</svg>
