<?xml version="1.0" encoding="UTF-8" standalone="no"?>
<!DOCTYPE svg PUBLIC "-//W3C//DTD SVG 1.1//EN"
 "http://www.w3.org/Graphics/SVG/1.1/DTD/svg11.dtd">
<!-- Generated by graphviz version 2.47.0 (20210316.0004)
 -->
<!-- Title: dependencies Pages: 1 -->
<svg width="504pt" height="284pt"
 viewBox="0.00 0.00 504.00 284.00" xmlns="http://www.w3.org/2000/svg" xmlns:xlink="http://www.w3.org/1999/xlink">
<g id="graph0" class="graph" transform="scale(1 1) rotate(0) translate(4 280)">
<title>dependencies</title>
<polygon fill="white" stroke="transparent" points="-4,4 -4,-280 500,-280 500,4 -4,4"/>
<text text-anchor="start" x="227.01" y="-42.4" font-family="Times-12" font-weight="bold" font-size="14.00">Legend</text>
<polygon fill="#ffffb3" stroke="transparent" points="14,-10 14,-30 34,-30 34,-10 14,-10"/>
<text text-anchor="start" x="37.63" y="-15.4" font-family="Times-12" font-size="14.00"> &#160;Declarations</text>
<polygon fill="#8dd3c7" stroke="transparent" points="127,-10 127,-30 147,-30 147,-10 127,-10"/>
<text text-anchor="start" x="150.73" y="-15.4" font-family="Times-12" font-size="14.00"> &#160;Module</text>
<polygon fill="#80b1d3" stroke="transparent" points="213,-10 213,-30 233,-30 233,-10 213,-10"/>
<text text-anchor="start" x="236.78" y="-15.4" font-family="Times-12" font-size="14.00"> &#160;Bootstrap</text>
<polygon fill="#fdb462" stroke="transparent" points="310,-10 310,-30 330,-30 330,-10 310,-10"/>
<text text-anchor="start" x="333.67" y="-15.4" font-family="Times-12" font-size="14.00"> &#160;Providers</text>
<polygon fill="#fb8072" stroke="transparent" points="406,-10 406,-30 426,-30 426,-10 406,-10"/>
<text text-anchor="start" x="429.73" y="-15.4" font-family="Times-12" font-size="14.00"> &#160;Exports</text>
<g id="clust1" class="cluster">
<title>cluster_AuthGoogleModule</title>
<polygon fill="none" stroke="black" stroke-dasharray="1,5" points="88,-70 88,-268 408,-268 408,-70 88,-70"/>
</g>
<g id="clust4" class="cluster">
<title>cluster_AuthGoogleModule_exports</title>
<polygon fill="none" stroke="black" points="186,-208 186,-260 332,-260 332,-208 186,-208"/>
</g>
<g id="clust3" class="cluster">
<title>cluster_AuthGoogleModule_imports</title>
<polygon fill="none" stroke="black" points="296,-78 296,-130 400,-130 400,-78 296,-78"/>
</g>
<g id="clust6" class="cluster">
<title>cluster_AuthGoogleModule_providers</title>
<polygon fill="none" stroke="black" points="96,-78 96,-130 288,-130 288,-78 96,-78"/>
</g>
<!-- AuthModule -->
<g id="node1" class="node">
<title>AuthModule</title>
<polygon fill="#8dd3c7" stroke="black" points="391.55,-122 388.55,-126 367.55,-126 364.55,-122 304.45,-122 304.45,-86 391.55,-86 391.55,-122"/>
<text text-anchor="middle" x="348" y="-99.8" font-family="Times,serif" font-size="14.00">AuthModule</text>
</g>
<!-- AuthGoogleModule -->
<g id="node2" class="node">
<title>AuthGoogleModule</title>
<polygon fill="#8dd3c7" stroke="black" points="323.26,-187 320.26,-191 299.26,-191 296.26,-187 194.74,-187 194.74,-151 323.26,-151 323.26,-187"/>
<text text-anchor="middle" x="259" y="-164.8" font-family="Times,serif" font-size="14.00">AuthGoogleModule</text>
</g>
<!-- AuthModule&#45;&gt;AuthGoogleModule -->
<g id="edge1" class="edge">
<title>AuthModule&#45;&gt;AuthGoogleModule</title>
<path fill="none" stroke="black" d="M313.8,-122.11C313.8,-122.11 313.8,-140.99 313.8,-140.99"/>
<polygon fill="black" stroke="black" points="310.3,-140.99 313.8,-150.99 317.3,-140.99 310.3,-140.99"/>
</g>
<!-- AuthGoogleService  -->
<g id="node3" class="node">
<title>AuthGoogleService </title>
<polygon fill="#fb8072" stroke="black" points="324.19,-252 193.81,-252 193.81,-216 324.19,-216 324.19,-252"/>
<text text-anchor="middle" x="259" y="-229.8" font-family="Times,serif" font-size="14.00">AuthGoogleService </text>
</g>
<!-- AuthGoogleModule&#45;&gt;AuthGoogleService  -->
<g id="edge2" class="edge">
<title>AuthGoogleModule&#45;&gt;AuthGoogleService </title>
<path fill="none" stroke="black" stroke-dasharray="5,2" d="M259,-187.11C259,-187.11 259,-205.99 259,-205.99"/>
<polygon fill="black" stroke="black" points="255.5,-205.99 259,-215.99 262.5,-205.99 255.5,-205.99"/>
</g>
<!-- AuthGoogleService -->
<g id="node4" class="node">
<title>AuthGoogleService</title>
<ellipse fill="#fdb462" stroke="black" cx="192" cy="-104" rx="87.96" ry="18"/>
<text text-anchor="middle" x="192" y="-99.8" font-family="Times,serif" font-size="14.00">AuthGoogleService</text>
</g>
<!-- AuthGoogleService&#45;&gt;AuthGoogleModule -->
<g id="edge3" class="edge">
<title>AuthGoogleService&#45;&gt;AuthGoogleModule</title>
<path fill="none" stroke="black" d="M237.18,-119.73C237.18,-119.73 237.18,-140.65 237.18,-140.65"/>
<polygon fill="black" stroke="black" points="233.68,-140.65 237.18,-150.65 240.68,-140.65 233.68,-140.65"/>
</g>
</g>
</svg>
