<?xml version="1.0" encoding="UTF-8" standalone="no"?>
<!DOCTYPE svg PUBLIC "-//W3C//DTD SVG 1.1//EN"
 "http://www.w3.org/Graphics/SVG/1.1/DTD/svg11.dtd">
<!-- Generated by graphviz version 2.47.0 (20210316.0004)
 -->
<!-- Title: dependencies Pages: 1 -->
<svg width="504pt" height="211pt"
 viewBox="0.00 0.00 504.00 211.00" xmlns="http://www.w3.org/2000/svg" xmlns:xlink="http://www.w3.org/1999/xlink">
<g id="graph0" class="graph" transform="scale(1 1) rotate(0) translate(4 207)">
<title>dependencies</title>
<polygon fill="white" stroke="transparent" points="-4,4 -4,-207 500,-207 500,4 -4,4"/>
<text text-anchor="start" x="227.01" y="-42.4" font-family="Times-12" font-weight="bold" font-size="14.00">Legend</text>
<polygon fill="#ffffb3" stroke="transparent" points="14,-10 14,-30 34,-30 34,-10 14,-10"/>
<text text-anchor="start" x="37.63" y="-15.4" font-family="Times-12" font-size="14.00"> &#160;Declarations</text>
<polygon fill="#8dd3c7" stroke="transparent" points="127,-10 127,-30 147,-30 147,-10 127,-10"/>
<text text-anchor="start" x="150.73" y="-15.4" font-family="Times-12" font-size="14.00"> &#160;Module</text>
<polygon fill="#80b1d3" stroke="transparent" points="213,-10 213,-30 233,-30 233,-10 213,-10"/>
<text text-anchor="start" x="236.78" y="-15.4" font-family="Times-12" font-size="14.00"> &#160;Bootstrap</text>
<polygon fill="#fdb462" stroke="transparent" points="310,-10 310,-30 330,-30 330,-10 310,-10"/>
<text text-anchor="start" x="333.67" y="-15.4" font-family="Times-12" font-size="14.00"> &#160;Providers</text>
<polygon fill="#fb8072" stroke="transparent" points="406,-10 406,-30 426,-30 426,-10 406,-10"/>
<text text-anchor="start" x="429.73" y="-15.4" font-family="Times-12" font-size="14.00"> &#160;Exports</text>
<g id="clust1" class="cluster">
<title>cluster_RelationalTenantTypePersistenceModule</title>
<polygon fill="none" stroke="black" stroke-dasharray="1,5" points="116,-70 116,-195 380,-195 380,-70 116,-70"/>
</g>
<g id="clust4" class="cluster">
<title>cluster_RelationalTenantTypePersistenceModule_exports</title>
<polygon fill="none" stroke="black" points="166,-135 166,-187 330,-187 330,-135 166,-135"/>
</g>
<!-- TenantTypeRepository  -->
<g id="node1" class="node">
<title>TenantTypeRepository </title>
<polygon fill="#fb8072" stroke="black" points="322.08,-179 173.92,-179 173.92,-143 322.08,-143 322.08,-179"/>
<text text-anchor="middle" x="248" y="-156.8" font-family="Times,serif" font-size="14.00">TenantTypeRepository </text>
</g>
<!-- RelationalTenantTypePersistenceModule -->
<g id="node2" class="node">
<title>RelationalTenantTypePersistenceModule</title>
<polygon fill="#8dd3c7" stroke="black" points="371.7,-114 368.7,-118 347.7,-118 344.7,-114 124.3,-114 124.3,-78 371.7,-78 371.7,-114"/>
<text text-anchor="middle" x="248" y="-91.8" font-family="Times,serif" font-size="14.00">RelationalTenantTypePersistenceModule</text>
</g>
<!-- RelationalTenantTypePersistenceModule&#45;&gt;TenantTypeRepository  -->
<g id="edge1" class="edge">
<title>RelationalTenantTypePersistenceModule&#45;&gt;TenantTypeRepository </title>
<path fill="none" stroke="black" stroke-dasharray="5,2" d="M248,-114.11C248,-114.11 248,-132.99 248,-132.99"/>
<polygon fill="black" stroke="black" points="244.5,-132.99 248,-142.99 251.5,-132.99 244.5,-132.99"/>
</g>
</g>
</svg>
