<?xml version="1.0" encoding="UTF-8" standalone="no"?>
<!DOCTYPE svg PUBLIC "-//W3C//DTD SVG 1.1//EN"
 "http://www.w3.org/Graphics/SVG/1.1/DTD/svg11.dtd">
<!-- Generated by graphviz version 2.47.0 (20210316.0004)
 -->
<!-- Title: dependencies Pages: 1 -->
<svg width="692pt" height="284pt"
 viewBox="0.00 0.00 692.00 284.00" xmlns="http://www.w3.org/2000/svg" xmlns:xlink="http://www.w3.org/1999/xlink">
<g id="graph0" class="graph" transform="scale(1 1) rotate(0) translate(4 280)">
<title>dependencies</title>
<polygon fill="white" stroke="transparent" points="-4,4 -4,-280 688,-280 688,4 -4,4"/>
<text text-anchor="start" x="321.01" y="-42.4" font-family="Times-12" font-weight="bold" font-size="14.00">Legend</text>
<polygon fill="#ffffb3" stroke="transparent" points="108,-10 108,-30 128,-30 128,-10 108,-10"/>
<text text-anchor="start" x="131.63" y="-15.4" font-family="Times-12" font-size="14.00"> &#160;Declarations</text>
<polygon fill="#8dd3c7" stroke="transparent" points="221,-10 221,-30 241,-30 241,-10 221,-10"/>
<text text-anchor="start" x="244.73" y="-15.4" font-family="Times-12" font-size="14.00"> &#160;Module</text>
<polygon fill="#80b1d3" stroke="transparent" points="307,-10 307,-30 327,-30 327,-10 307,-10"/>
<text text-anchor="start" x="330.78" y="-15.4" font-family="Times-12" font-size="14.00"> &#160;Bootstrap</text>
<polygon fill="#fdb462" stroke="transparent" points="404,-10 404,-30 424,-30 424,-10 404,-10"/>
<text text-anchor="start" x="427.67" y="-15.4" font-family="Times-12" font-size="14.00"> &#160;Providers</text>
<polygon fill="#fb8072" stroke="transparent" points="500,-10 500,-30 520,-30 520,-10 500,-10"/>
<text text-anchor="start" x="523.73" y="-15.4" font-family="Times-12" font-size="14.00"> &#160;Exports</text>
<g id="clust1" class="cluster">
<title>cluster_AccountsModule</title>
<polygon fill="none" stroke="black" stroke-dasharray="1,5" points="8,-70 8,-268 676,-268 676,-70 8,-70"/>
</g>
<g id="clust3" class="cluster">
<title>cluster_AccountsModule_imports</title>
<polygon fill="none" stroke="black" points="192,-78 192,-130 668,-130 668,-78 192,-78"/>
</g>
<g id="clust4" class="cluster">
<title>cluster_AccountsModule_exports</title>
<polygon fill="none" stroke="black" points="99,-208 99,-260 478,-260 478,-208 99,-208"/>
</g>
<g id="clust6" class="cluster">
<title>cluster_AccountsModule_providers</title>
<polygon fill="none" stroke="black" points="16,-78 16,-130 184,-130 184,-78 16,-78"/>
</g>
<!-- RelationalAccountPersistenceModule -->
<g id="node1" class="node">
<title>RelationalAccountPersistenceModule</title>
<polygon fill="#8dd3c7" stroke="black" points="659.99,-122 656.99,-126 635.99,-126 632.99,-122 432.01,-122 432.01,-86 659.99,-86 659.99,-122"/>
<text text-anchor="middle" x="546" y="-99.8" font-family="Times,serif" font-size="14.00">RelationalAccountPersistenceModule</text>
</g>
<!-- AccountsModule -->
<g id="node4" class="node">
<title>AccountsModule</title>
<polygon fill="#8dd3c7" stroke="black" points="360.42,-187 357.42,-191 336.42,-191 333.42,-187 247.58,-187 247.58,-151 360.42,-151 360.42,-187"/>
<text text-anchor="middle" x="304" y="-164.8" font-family="Times,serif" font-size="14.00">AccountsModule</text>
</g>
<!-- RelationalAccountPersistenceModule&#45;&gt;AccountsModule -->
<g id="edge1" class="edge">
<title>RelationalAccountPersistenceModule&#45;&gt;AccountsModule</title>
<path fill="none" stroke="black" d="M451.21,-122.11C451.21,-141.34 451.21,-169 451.21,-169 451.21,-169 370.5,-169 370.5,-169"/>
<polygon fill="black" stroke="black" points="370.5,-165.5 360.5,-169 370.5,-172.5 370.5,-165.5"/>
</g>
<!-- TenantsModule -->
<g id="node2" class="node">
<title>TenantsModule</title>
<polygon fill="#8dd3c7" stroke="black" points="413.87,-122 410.87,-126 389.87,-126 386.87,-122 310.13,-122 310.13,-86 413.87,-86 413.87,-122"/>
<text text-anchor="middle" x="362" y="-99.8" font-family="Times,serif" font-size="14.00">TenantsModule</text>
</g>
<!-- TenantsModule&#45;&gt;AccountsModule -->
<g id="edge2" class="edge">
<title>TenantsModule&#45;&gt;AccountsModule</title>
<path fill="none" stroke="black" d="M335.14,-122.11C335.14,-122.11 335.14,-140.99 335.14,-140.99"/>
<polygon fill="black" stroke="black" points="331.64,-140.99 335.14,-150.99 338.64,-140.99 331.64,-140.99"/>
</g>
<!-- UsersModule -->
<g id="node3" class="node">
<title>UsersModule</title>
<polygon fill="#8dd3c7" stroke="black" points="291.92,-122 288.92,-126 267.92,-126 264.92,-122 200.08,-122 200.08,-86 291.92,-86 291.92,-122"/>
<text text-anchor="middle" x="246" y="-99.8" font-family="Times,serif" font-size="14.00">UsersModule</text>
</g>
<!-- UsersModule&#45;&gt;AccountsModule -->
<g id="edge3" class="edge">
<title>UsersModule&#45;&gt;AccountsModule</title>
<path fill="none" stroke="black" d="M269.75,-122.11C269.75,-122.11 269.75,-140.99 269.75,-140.99"/>
<polygon fill="black" stroke="black" points="266.25,-140.99 269.75,-150.99 273.25,-140.99 266.25,-140.99"/>
</g>
<!-- AccountsService  -->
<g id="node5" class="node">
<title>AccountsService </title>
<polygon fill="#fb8072" stroke="black" points="470.35,-252 355.65,-252 355.65,-216 470.35,-216 470.35,-252"/>
<text text-anchor="middle" x="413" y="-229.8" font-family="Times,serif" font-size="14.00">AccountsService </text>
</g>
<!-- AccountsModule&#45;&gt;AccountsService  -->
<g id="edge4" class="edge">
<title>AccountsModule&#45;&gt;AccountsService </title>
<path fill="none" stroke="black" stroke-dasharray="5,2" d="M346.66,-187.11C346.66,-206.34 346.66,-234 346.66,-234 346.66,-234 347.56,-234 347.56,-234"/>
<polygon fill="black" stroke="black" points="345.61,-237.5 355.61,-234 345.61,-230.5 345.61,-237.5"/>
</g>
<!-- RelationalAccountPersistenceModule  -->
<g id="node6" class="node">
<title>RelationalAccountPersistenceModule </title>
<polygon fill="#fb8072" stroke="black" points="337.49,-252 106.51,-252 106.51,-216 337.49,-216 337.49,-252"/>
<text text-anchor="middle" x="222" y="-229.8" font-family="Times,serif" font-size="14.00">RelationalAccountPersistenceModule </text>
</g>
<!-- AccountsModule&#45;&gt;RelationalAccountPersistenceModule  -->
<g id="edge5" class="edge">
<title>AccountsModule&#45;&gt;RelationalAccountPersistenceModule </title>
<path fill="none" stroke="black" stroke-dasharray="5,2" d="M292.64,-187.11C292.64,-187.11 292.64,-205.99 292.64,-205.99"/>
<polygon fill="black" stroke="black" points="289.14,-205.99 292.64,-215.99 296.14,-205.99 289.14,-205.99"/>
</g>
<!-- AccountsService -->
<g id="node7" class="node">
<title>AccountsService</title>
<ellipse fill="#fdb462" stroke="black" cx="100" cy="-104" rx="76.42" ry="18"/>
<text text-anchor="middle" x="100" y="-99.8" font-family="Times,serif" font-size="14.00">AccountsService</text>
</g>
<!-- AccountsService&#45;&gt;AccountsModule -->
<g id="edge6" class="edge">
<title>AccountsService&#45;&gt;AccountsModule</title>
<path fill="none" stroke="black" d="M141.48,-119.4C141.48,-138.63 141.48,-169 141.48,-169 141.48,-169 237.62,-169 237.62,-169"/>
<polygon fill="black" stroke="black" points="237.62,-172.5 247.62,-169 237.62,-165.5 237.62,-172.5"/>
</g>
</g>
</svg>
