<?xml version="1.0" encoding="UTF-8" standalone="no"?>
<!DOCTYPE svg PUBLIC "-//W3C//DTD SVG 1.1//EN"
 "http://www.w3.org/Graphics/SVG/1.1/DTD/svg11.dtd">
<!-- Generated by graphviz version 2.47.0 (20210316.0004)
 -->
<!-- Title: dependencies Pages: 1 -->
<svg width="504pt" height="284pt"
 viewBox="0.00 0.00 504.00 284.00" xmlns="http://www.w3.org/2000/svg" xmlns:xlink="http://www.w3.org/1999/xlink">
<g id="graph0" class="graph" transform="scale(1 1) rotate(0) translate(4 280)">
<title>dependencies</title>
<polygon fill="white" stroke="transparent" points="-4,4 -4,-280 500,-280 500,4 -4,4"/>
<text text-anchor="start" x="227.01" y="-42.4" font-family="Times-12" font-weight="bold" font-size="14.00">Legend</text>
<polygon fill="#ffffb3" stroke="transparent" points="14,-10 14,-30 34,-30 34,-10 14,-10"/>
<text text-anchor="start" x="37.63" y="-15.4" font-family="Times-12" font-size="14.00"> &#160;Declarations</text>
<polygon fill="#8dd3c7" stroke="transparent" points="127,-10 127,-30 147,-30 147,-10 127,-10"/>
<text text-anchor="start" x="150.73" y="-15.4" font-family="Times-12" font-size="14.00"> &#160;Module</text>
<polygon fill="#80b1d3" stroke="transparent" points="213,-10 213,-30 233,-30 233,-10 213,-10"/>
<text text-anchor="start" x="236.78" y="-15.4" font-family="Times-12" font-size="14.00"> &#160;Bootstrap</text>
<polygon fill="#fdb462" stroke="transparent" points="310,-10 310,-30 330,-30 330,-10 310,-10"/>
<text text-anchor="start" x="333.67" y="-15.4" font-family="Times-12" font-size="14.00"> &#160;Providers</text>
<polygon fill="#fb8072" stroke="transparent" points="406,-10 406,-30 426,-30 426,-10 406,-10"/>
<text text-anchor="start" x="429.73" y="-15.4" font-family="Times-12" font-size="14.00"> &#160;Exports</text>
<g id="clust1" class="cluster">
<title>cluster_FilesS3Module</title>
<polygon fill="none" stroke="black" stroke-dasharray="1,5" points="163,-70 163,-268 333,-268 333,-70 163,-70"/>
</g>
<g id="clust4" class="cluster">
<title>cluster_FilesS3Module_exports</title>
<polygon fill="none" stroke="black" points="188,-208 188,-260 308,-260 308,-208 188,-208"/>
</g>
<g id="clust6" class="cluster">
<title>cluster_FilesS3Module_providers</title>
<polygon fill="none" stroke="black" points="171,-78 171,-130 325,-130 325,-78 171,-78"/>
</g>
<!-- FilesS3Service  -->
<g id="node1" class="node">
<title>FilesS3Service </title>
<polygon fill="#fb8072" stroke="black" points="299.98,-252 196.02,-252 196.02,-216 299.98,-216 299.98,-252"/>
<text text-anchor="middle" x="248" y="-229.8" font-family="Times,serif" font-size="14.00">FilesS3Service </text>
</g>
<!-- FilesS3Module -->
<g id="node2" class="node">
<title>FilesS3Module</title>
<polygon fill="#8dd3c7" stroke="black" points="298.56,-187 295.56,-191 274.56,-191 271.56,-187 197.44,-187 197.44,-151 298.56,-151 298.56,-187"/>
<text text-anchor="middle" x="248" y="-164.8" font-family="Times,serif" font-size="14.00">FilesS3Module</text>
</g>
<!-- FilesS3Module&#45;&gt;FilesS3Service  -->
<g id="edge1" class="edge">
<title>FilesS3Module&#45;&gt;FilesS3Service </title>
<path fill="none" stroke="black" stroke-dasharray="5,2" d="M248,-187.11C248,-187.11 248,-205.99 248,-205.99"/>
<polygon fill="black" stroke="black" points="244.5,-205.99 248,-215.99 251.5,-205.99 244.5,-205.99"/>
</g>
<!-- FilesS3Service -->
<g id="node3" class="node">
<title>FilesS3Service</title>
<ellipse fill="#fdb462" stroke="black" cx="248" cy="-104" rx="68.93" ry="18"/>
<text text-anchor="middle" x="248" y="-99.8" font-family="Times,serif" font-size="14.00">FilesS3Service</text>
</g>
<!-- FilesS3Service&#45;&gt;FilesS3Module -->
<g id="edge2" class="edge">
<title>FilesS3Service&#45;&gt;FilesS3Module</title>
<path fill="none" stroke="black" d="M248,-122.11C248,-122.11 248,-140.99 248,-140.99"/>
<polygon fill="black" stroke="black" points="244.5,-140.99 248,-150.99 251.5,-140.99 244.5,-140.99"/>
</g>
</g>
</svg>
