<?xml version="1.0" encoding="UTF-8" standalone="no"?>
<!DOCTYPE svg PUBLIC "-//W3C//DTD SVG 1.1//EN"
 "http://www.w3.org/Graphics/SVG/1.1/DTD/svg11.dtd">
<!-- Generated by graphviz version 2.47.0 (20210316.0004)
 -->
<!-- Title: dependencies Pages: 1 -->
<svg width="696pt" height="284pt"
 viewBox="0.00 0.00 696.00 284.00" xmlns="http://www.w3.org/2000/svg" xmlns:xlink="http://www.w3.org/1999/xlink">
<g id="graph0" class="graph" transform="scale(1 1) rotate(0) translate(4 280)">
<title>dependencies</title>
<polygon fill="white" stroke="transparent" points="-4,4 -4,-280 692,-280 692,4 -4,4"/>
<text text-anchor="start" x="323.01" y="-42.4" font-family="Times-12" font-weight="bold" font-size="14.00">Legend</text>
<polygon fill="#ffffb3" stroke="transparent" points="110,-10 110,-30 130,-30 130,-10 110,-10"/>
<text text-anchor="start" x="133.63" y="-15.4" font-family="Times-12" font-size="14.00"> &#160;Declarations</text>
<polygon fill="#8dd3c7" stroke="transparent" points="223,-10 223,-30 243,-30 243,-10 223,-10"/>
<text text-anchor="start" x="246.73" y="-15.4" font-family="Times-12" font-size="14.00"> &#160;Module</text>
<polygon fill="#80b1d3" stroke="transparent" points="309,-10 309,-30 329,-30 329,-10 309,-10"/>
<text text-anchor="start" x="332.78" y="-15.4" font-family="Times-12" font-size="14.00"> &#160;Bootstrap</text>
<polygon fill="#fdb462" stroke="transparent" points="406,-10 406,-30 426,-30 426,-10 406,-10"/>
<text text-anchor="start" x="429.67" y="-15.4" font-family="Times-12" font-size="14.00"> &#160;Providers</text>
<polygon fill="#fb8072" stroke="transparent" points="502,-10 502,-30 522,-30 522,-10 502,-10"/>
<text text-anchor="start" x="525.73" y="-15.4" font-family="Times-12" font-size="14.00"> &#160;Exports</text>
<g id="clust1" class="cluster">
<title>cluster_TenantsModule</title>
<polygon fill="none" stroke="black" stroke-dasharray="1,5" points="8,-70 8,-268 680,-268 680,-70 8,-70"/>
</g>
<g id="clust4" class="cluster">
<title>cluster_TenantsModule_exports</title>
<polygon fill="none" stroke="black" points="161,-208 161,-260 523,-260 523,-208 161,-208"/>
</g>
<g id="clust3" class="cluster">
<title>cluster_TenantsModule_imports</title>
<polygon fill="none" stroke="black" points="182,-78 182,-130 672,-130 672,-78 182,-78"/>
</g>
<g id="clust6" class="cluster">
<title>cluster_TenantsModule_providers</title>
<polygon fill="none" stroke="black" points="16,-78 16,-130 174,-130 174,-78 16,-78"/>
</g>
<!-- FilesModule -->
<g id="node1" class="node">
<title>FilesModule</title>
<polygon fill="#8dd3c7" stroke="black" points="664.27,-122 661.27,-126 640.27,-126 637.27,-122 577.73,-122 577.73,-86 664.27,-86 664.27,-122"/>
<text text-anchor="middle" x="621" y="-99.8" font-family="Times,serif" font-size="14.00">FilesModule</text>
</g>
<!-- TenantsModule -->
<g id="node4" class="node">
<title>TenantsModule</title>
<polygon fill="#8dd3c7" stroke="black" points="364.87,-187 361.87,-191 340.87,-191 337.87,-187 261.13,-187 261.13,-151 364.87,-151 364.87,-187"/>
<text text-anchor="middle" x="313" y="-164.8" font-family="Times,serif" font-size="14.00">TenantsModule</text>
</g>
<!-- FilesModule&#45;&gt;TenantsModule -->
<g id="edge1" class="edge">
<title>FilesModule&#45;&gt;TenantsModule</title>
<path fill="none" stroke="black" d="M621,-122.11C621,-141.34 621,-169 621,-169 621,-169 374.9,-169 374.9,-169"/>
<polygon fill="black" stroke="black" points="374.9,-165.5 364.9,-169 374.9,-172.5 374.9,-165.5"/>
</g>
<!-- RelationalTenantPersistenceModule -->
<g id="node2" class="node">
<title>RelationalTenantPersistenceModule</title>
<polygon fill="#8dd3c7" stroke="black" points="559.44,-122 556.44,-126 535.44,-126 532.44,-122 340.56,-122 340.56,-86 559.44,-86 559.44,-122"/>
<text text-anchor="middle" x="450" y="-99.8" font-family="Times,serif" font-size="14.00">RelationalTenantPersistenceModule</text>
</g>
<!-- RelationalTenantPersistenceModule&#45;&gt;TenantsModule -->
<g id="edge2" class="edge">
<title>RelationalTenantPersistenceModule&#45;&gt;TenantsModule</title>
<path fill="none" stroke="black" d="M352.73,-122.11C352.73,-122.11 352.73,-140.99 352.73,-140.99"/>
<polygon fill="black" stroke="black" points="349.23,-140.99 352.73,-150.99 356.23,-140.99 349.23,-140.99"/>
</g>
<!-- TenantTypesModule -->
<g id="node3" class="node">
<title>TenantTypesModule</title>
<polygon fill="#8dd3c7" stroke="black" points="322.13,-122 319.13,-126 298.13,-126 295.13,-122 189.87,-122 189.87,-86 322.13,-86 322.13,-122"/>
<text text-anchor="middle" x="256" y="-99.8" font-family="Times,serif" font-size="14.00">TenantTypesModule</text>
</g>
<!-- TenantTypesModule&#45;&gt;TenantsModule -->
<g id="edge3" class="edge">
<title>TenantTypesModule&#45;&gt;TenantsModule</title>
<path fill="none" stroke="black" d="M291.69,-122.11C291.69,-122.11 291.69,-140.99 291.69,-140.99"/>
<polygon fill="black" stroke="black" points="288.19,-140.99 291.69,-150.99 295.19,-140.99 288.19,-140.99"/>
</g>
<!-- RelationalTenantPersistenceModule  -->
<g id="node5" class="node">
<title>RelationalTenantPersistenceModule </title>
<polygon fill="#fb8072" stroke="black" points="515.44,-252 292.56,-252 292.56,-216 515.44,-216 515.44,-252"/>
<text text-anchor="middle" x="404" y="-229.8" font-family="Times,serif" font-size="14.00">RelationalTenantPersistenceModule </text>
</g>
<!-- TenantsModule&#45;&gt;RelationalTenantPersistenceModule  -->
<g id="edge4" class="edge">
<title>TenantsModule&#45;&gt;RelationalTenantPersistenceModule </title>
<path fill="none" stroke="black" stroke-dasharray="5,2" d="M328.86,-187.11C328.86,-187.11 328.86,-205.99 328.86,-205.99"/>
<polygon fill="black" stroke="black" points="325.36,-205.99 328.86,-215.99 332.36,-205.99 325.36,-205.99"/>
</g>
<!-- TenantsService  -->
<g id="node6" class="node">
<title>TenantsService </title>
<polygon fill="#fb8072" stroke="black" points="274.79,-252 169.21,-252 169.21,-216 274.79,-216 274.79,-252"/>
<text text-anchor="middle" x="222" y="-229.8" font-family="Times,serif" font-size="14.00">TenantsService </text>
</g>
<!-- TenantsModule&#45;&gt;TenantsService  -->
<g id="edge5" class="edge">
<title>TenantsModule&#45;&gt;TenantsService </title>
<path fill="none" stroke="black" stroke-dasharray="5,2" d="M267.98,-187.11C267.98,-187.11 267.98,-205.99 267.98,-205.99"/>
<polygon fill="black" stroke="black" points="264.48,-205.99 267.98,-215.99 271.48,-205.99 264.48,-205.99"/>
</g>
<!-- TenantsService -->
<g id="node7" class="node">
<title>TenantsService</title>
<ellipse fill="#fdb462" stroke="black" cx="95" cy="-104" rx="70.62" ry="18"/>
<text text-anchor="middle" x="95" y="-99.8" font-family="Times,serif" font-size="14.00">TenantsService</text>
</g>
<!-- TenantsService&#45;&gt;TenantsModule -->
<g id="edge6" class="edge">
<title>TenantsService&#45;&gt;TenantsModule</title>
<path fill="none" stroke="black" d="M95,-122.11C95,-141.34 95,-169 95,-169 95,-169 251.06,-169 251.06,-169"/>
<polygon fill="black" stroke="black" points="251.06,-172.5 261.06,-169 251.06,-165.5 251.06,-172.5"/>
</g>
</g>
</svg>
