<?xml version="1.0" encoding="UTF-8" standalone="no"?>
<!DOCTYPE svg PUBLIC "-//W3C//DTD SVG 1.1//EN"
 "http://www.w3.org/Graphics/SVG/1.1/DTD/svg11.dtd">
<!-- Generated by graphviz version 2.47.0 (20210316.0004)
 -->
<!-- Title: dependencies Pages: 1 -->
<svg width="508pt" height="284pt"
 viewBox="0.00 0.00 508.00 284.00" xmlns="http://www.w3.org/2000/svg" xmlns:xlink="http://www.w3.org/1999/xlink">
<g id="graph0" class="graph" transform="scale(1 1) rotate(0) translate(4 280)">
<title>dependencies</title>
<polygon fill="white" stroke="transparent" points="-4,4 -4,-280 504,-280 504,4 -4,4"/>
<text text-anchor="start" x="229.01" y="-42.4" font-family="Times-12" font-weight="bold" font-size="14.00">Legend</text>
<polygon fill="#ffffb3" stroke="transparent" points="16,-10 16,-30 36,-30 36,-10 16,-10"/>
<text text-anchor="start" x="39.63" y="-15.4" font-family="Times-12" font-size="14.00"> &#160;Declarations</text>
<polygon fill="#8dd3c7" stroke="transparent" points="129,-10 129,-30 149,-30 149,-10 129,-10"/>
<text text-anchor="start" x="152.73" y="-15.4" font-family="Times-12" font-size="14.00"> &#160;Module</text>
<polygon fill="#80b1d3" stroke="transparent" points="215,-10 215,-30 235,-30 235,-10 215,-10"/>
<text text-anchor="start" x="238.78" y="-15.4" font-family="Times-12" font-size="14.00"> &#160;Bootstrap</text>
<polygon fill="#fdb462" stroke="transparent" points="312,-10 312,-30 332,-30 332,-10 312,-10"/>
<text text-anchor="start" x="335.67" y="-15.4" font-family="Times-12" font-size="14.00"> &#160;Providers</text>
<polygon fill="#fb8072" stroke="transparent" points="408,-10 408,-30 428,-30 428,-10 408,-10"/>
<text text-anchor="start" x="431.73" y="-15.4" font-family="Times-12" font-size="14.00"> &#160;Exports</text>
<g id="clust1" class="cluster">
<title>cluster_TenantTypesModule</title>
<polygon fill="none" stroke="black" stroke-dasharray="1,5" points="8,-70 8,-268 492,-268 492,-70 8,-70"/>
</g>
<g id="clust6" class="cluster">
<title>cluster_TenantTypesModule_providers</title>
<polygon fill="none" stroke="black" points="288,-78 288,-130 484,-130 484,-78 288,-78"/>
</g>
<g id="clust4" class="cluster">
<title>cluster_TenantTypesModule_exports</title>
<polygon fill="none" stroke="black" points="40,-208 40,-260 460,-260 460,-208 40,-208"/>
</g>
<g id="clust3" class="cluster">
<title>cluster_TenantTypesModule_imports</title>
<polygon fill="none" stroke="black" points="16,-78 16,-130 280,-130 280,-78 16,-78"/>
</g>
<!-- RelationalTenantTypePersistenceModule -->
<g id="node1" class="node">
<title>RelationalTenantTypePersistenceModule</title>
<polygon fill="#8dd3c7" stroke="black" points="271.7,-122 268.7,-126 247.7,-126 244.7,-122 24.3,-122 24.3,-86 271.7,-86 271.7,-122"/>
<text text-anchor="middle" x="148" y="-99.8" font-family="Times,serif" font-size="14.00">RelationalTenantTypePersistenceModule</text>
</g>
<!-- TenantTypesModule -->
<g id="node2" class="node">
<title>TenantTypesModule</title>
<polygon fill="#8dd3c7" stroke="black" points="303.13,-187 300.13,-191 279.13,-191 276.13,-187 170.87,-187 170.87,-151 303.13,-151 303.13,-187"/>
<text text-anchor="middle" x="237" y="-164.8" font-family="Times,serif" font-size="14.00">TenantTypesModule</text>
</g>
<!-- RelationalTenantTypePersistenceModule&#45;&gt;TenantTypesModule -->
<g id="edge1" class="edge">
<title>RelationalTenantTypePersistenceModule&#45;&gt;TenantTypesModule</title>
<path fill="none" stroke="black" d="M221.27,-122.11C221.27,-122.11 221.27,-140.99 221.27,-140.99"/>
<polygon fill="black" stroke="black" points="217.77,-140.99 221.27,-150.99 224.77,-140.99 217.77,-140.99"/>
</g>
<!-- RelationalTenantTypePersistenceModule  -->
<g id="node3" class="node">
<title>RelationalTenantTypePersistenceModule </title>
<polygon fill="#fb8072" stroke="black" points="451.7,-252 200.3,-252 200.3,-216 451.7,-216 451.7,-252"/>
<text text-anchor="middle" x="326" y="-229.8" font-family="Times,serif" font-size="14.00">RelationalTenantTypePersistenceModule </text>
</g>
<!-- TenantTypesModule&#45;&gt;RelationalTenantTypePersistenceModule  -->
<g id="edge2" class="edge">
<title>TenantTypesModule&#45;&gt;RelationalTenantTypePersistenceModule </title>
<path fill="none" stroke="black" stroke-dasharray="5,2" d="M251.86,-187.11C251.86,-187.11 251.86,-205.99 251.86,-205.99"/>
<polygon fill="black" stroke="black" points="248.36,-205.99 251.86,-215.99 255.36,-205.99 248.36,-205.99"/>
</g>
<!-- TenantTypesService  -->
<g id="node4" class="node">
<title>TenantTypesService </title>
<polygon fill="#fb8072" stroke="black" points="182.06,-252 47.94,-252 47.94,-216 182.06,-216 182.06,-252"/>
<text text-anchor="middle" x="115" y="-229.8" font-family="Times,serif" font-size="14.00">TenantTypesService </text>
</g>
<!-- TenantTypesModule&#45;&gt;TenantTypesService  -->
<g id="edge3" class="edge">
<title>TenantTypesModule&#45;&gt;TenantTypesService </title>
<path fill="none" stroke="black" stroke-dasharray="5,2" d="M176.48,-187.11C176.48,-187.11 176.48,-205.99 176.48,-205.99"/>
<polygon fill="black" stroke="black" points="172.98,-205.99 176.48,-215.99 179.98,-205.99 172.98,-205.99"/>
</g>
<!-- TenantTypesService -->
<g id="node5" class="node">
<title>TenantTypesService</title>
<ellipse fill="#fdb462" stroke="black" cx="386" cy="-104" rx="90.31" ry="18"/>
<text text-anchor="middle" x="386" y="-99.8" font-family="Times,serif" font-size="14.00">TenantTypesService</text>
</g>
<!-- TenantTypesService&#45;&gt;TenantTypesModule -->
<g id="edge4" class="edge">
<title>TenantTypesService&#45;&gt;TenantTypesModule</title>
<path fill="none" stroke="black" d="M299.46,-109.54C299.46,-109.54 299.46,-140.75 299.46,-140.75"/>
<polygon fill="black" stroke="black" points="295.96,-140.75 299.46,-150.75 302.96,-140.75 295.96,-140.75"/>
</g>
</g>
</svg>
