<?xml version="1.0" encoding="UTF-8" standalone="no"?>
<!DOCTYPE svg PUBLIC "-//W3C//DTD SVG 1.1//EN"
 "http://www.w3.org/Graphics/SVG/1.1/DTD/svg11.dtd">
<!-- Generated by graphviz version 2.47.0 (20210316.0004)
 -->
<!-- Title: dependencies Pages: 1 -->
<svg width="504pt" height="284pt"
 viewBox="0.00 0.00 504.00 284.00" xmlns="http://www.w3.org/2000/svg" xmlns:xlink="http://www.w3.org/1999/xlink">
<g id="graph0" class="graph" transform="scale(1 1) rotate(0) translate(4 280)">
<title>dependencies</title>
<polygon fill="white" stroke="transparent" points="-4,4 -4,-280 500,-280 500,4 -4,4"/>
<text text-anchor="start" x="227.01" y="-42.4" font-family="Times-12" font-weight="bold" font-size="14.00">Legend</text>
<polygon fill="#ffffb3" stroke="transparent" points="14,-10 14,-30 34,-30 34,-10 14,-10"/>
<text text-anchor="start" x="37.63" y="-15.4" font-family="Times-12" font-size="14.00"> &#160;Declarations</text>
<polygon fill="#8dd3c7" stroke="transparent" points="127,-10 127,-30 147,-30 147,-10 127,-10"/>
<text text-anchor="start" x="150.73" y="-15.4" font-family="Times-12" font-size="14.00"> &#160;Module</text>
<polygon fill="#80b1d3" stroke="transparent" points="213,-10 213,-30 233,-30 233,-10 213,-10"/>
<text text-anchor="start" x="236.78" y="-15.4" font-family="Times-12" font-size="14.00"> &#160;Bootstrap</text>
<polygon fill="#fdb462" stroke="transparent" points="310,-10 310,-30 330,-30 330,-10 310,-10"/>
<text text-anchor="start" x="333.67" y="-15.4" font-family="Times-12" font-size="14.00"> &#160;Providers</text>
<polygon fill="#fb8072" stroke="transparent" points="406,-10 406,-30 426,-30 426,-10 406,-10"/>
<text text-anchor="start" x="429.73" y="-15.4" font-family="Times-12" font-size="14.00"> &#160;Exports</text>
<g id="clust1" class="cluster">
<title>cluster_AuthAppleModule</title>
<polygon fill="none" stroke="black" stroke-dasharray="1,5" points="93,-70 93,-268 403,-268 403,-70 93,-70"/>
</g>
<g id="clust3" class="cluster">
<title>cluster_AuthAppleModule_imports</title>
<polygon fill="none" stroke="black" points="291,-78 291,-130 395,-130 395,-78 291,-78"/>
</g>
<g id="clust4" class="cluster">
<title>cluster_AuthAppleModule_exports</title>
<polygon fill="none" stroke="black" points="188,-208 188,-260 328,-260 328,-208 188,-208"/>
</g>
<g id="clust6" class="cluster">
<title>cluster_AuthAppleModule_providers</title>
<polygon fill="none" stroke="black" points="101,-78 101,-130 283,-130 283,-78 101,-78"/>
</g>
<!-- AuthModule -->
<g id="node1" class="node">
<title>AuthModule</title>
<polygon fill="#8dd3c7" stroke="black" points="386.55,-122 383.55,-126 362.55,-126 359.55,-122 299.45,-122 299.45,-86 386.55,-86 386.55,-122"/>
<text text-anchor="middle" x="343" y="-99.8" font-family="Times,serif" font-size="14.00">AuthModule</text>
</g>
<!-- AuthAppleModule -->
<g id="node2" class="node">
<title>AuthAppleModule</title>
<polygon fill="#8dd3c7" stroke="black" points="318.76,-187 315.76,-191 294.76,-191 291.76,-187 197.24,-187 197.24,-151 318.76,-151 318.76,-187"/>
<text text-anchor="middle" x="258" y="-164.8" font-family="Times,serif" font-size="14.00">AuthAppleModule</text>
</g>
<!-- AuthModule&#45;&gt;AuthAppleModule -->
<g id="edge1" class="edge">
<title>AuthModule&#45;&gt;AuthAppleModule</title>
<path fill="none" stroke="black" d="M309.05,-122.11C309.05,-122.11 309.05,-140.99 309.05,-140.99"/>
<polygon fill="black" stroke="black" points="305.55,-140.99 309.05,-150.99 312.55,-140.99 305.55,-140.99"/>
</g>
<!-- AuthAppleService  -->
<g id="node3" class="node">
<title>AuthAppleService </title>
<polygon fill="#fb8072" stroke="black" points="319.69,-252 196.31,-252 196.31,-216 319.69,-216 319.69,-252"/>
<text text-anchor="middle" x="258" y="-229.8" font-family="Times,serif" font-size="14.00">AuthAppleService </text>
</g>
<!-- AuthAppleModule&#45;&gt;AuthAppleService  -->
<g id="edge2" class="edge">
<title>AuthAppleModule&#45;&gt;AuthAppleService </title>
<path fill="none" stroke="black" stroke-dasharray="5,2" d="M258,-187.11C258,-187.11 258,-205.99 258,-205.99"/>
<polygon fill="black" stroke="black" points="254.5,-205.99 258,-215.99 261.5,-205.99 254.5,-205.99"/>
</g>
<!-- AuthAppleService -->
<g id="node4" class="node">
<title>AuthAppleService</title>
<ellipse fill="#fdb462" stroke="black" cx="192" cy="-104" rx="82.81" ry="18"/>
<text text-anchor="middle" x="192" y="-99.8" font-family="Times,serif" font-size="14.00">AuthAppleService</text>
</g>
<!-- AuthAppleService&#45;&gt;AuthAppleModule -->
<g id="edge3" class="edge">
<title>AuthAppleService&#45;&gt;AuthAppleModule</title>
<path fill="none" stroke="black" d="M236.01,-119.4C236.01,-119.4 236.01,-140.94 236.01,-140.94"/>
<polygon fill="black" stroke="black" points="232.51,-140.94 236.01,-150.94 239.51,-140.94 232.51,-140.94"/>
</g>
</g>
</svg>
