<?xml version="1.0" encoding="UTF-8" standalone="no"?>
<!DOCTYPE svg PUBLIC "-//W3C//DTD SVG 1.1//EN"
 "http://www.w3.org/Graphics/SVG/1.1/DTD/svg11.dtd">
<!-- Generated by graphviz version 2.47.0 (20210316.0004)
 -->
<!-- Title: dependencies Pages: 1 -->
<svg width="504pt" height="284pt"
 viewBox="0.00 0.00 504.00 284.00" xmlns="http://www.w3.org/2000/svg" xmlns:xlink="http://www.w3.org/1999/xlink">
<g id="graph0" class="graph" transform="scale(1 1) rotate(0) translate(4 280)">
<title>dependencies</title>
<polygon fill="white" stroke="transparent" points="-4,4 -4,-280 500,-280 500,4 -4,4"/>
<text text-anchor="start" x="227.01" y="-42.4" font-family="Times-12" font-weight="bold" font-size="14.00">Legend</text>
<polygon fill="#ffffb3" stroke="transparent" points="14,-10 14,-30 34,-30 34,-10 14,-10"/>
<text text-anchor="start" x="37.63" y="-15.4" font-family="Times-12" font-size="14.00"> &#160;Declarations</text>
<polygon fill="#8dd3c7" stroke="transparent" points="127,-10 127,-30 147,-30 147,-10 127,-10"/>
<text text-anchor="start" x="150.73" y="-15.4" font-family="Times-12" font-size="14.00"> &#160;Module</text>
<polygon fill="#80b1d3" stroke="transparent" points="213,-10 213,-30 233,-30 233,-10 213,-10"/>
<text text-anchor="start" x="236.78" y="-15.4" font-family="Times-12" font-size="14.00"> &#160;Bootstrap</text>
<polygon fill="#fdb462" stroke="transparent" points="310,-10 310,-30 330,-30 330,-10 310,-10"/>
<text text-anchor="start" x="333.67" y="-15.4" font-family="Times-12" font-size="14.00"> &#160;Providers</text>
<polygon fill="#fb8072" stroke="transparent" points="406,-10 406,-30 426,-30 426,-10 406,-10"/>
<text text-anchor="start" x="429.73" y="-15.4" font-family="Times-12" font-size="14.00"> &#160;Exports</text>
<g id="clust1" class="cluster">
<title>cluster_RegionsModule</title>
<polygon fill="none" stroke="black" stroke-dasharray="1,5" points="38,-70 38,-268 458,-268 458,-70 38,-70"/>
</g>
<g id="clust4" class="cluster">
<title>cluster_RegionsModule_exports</title>
<polygon fill="none" stroke="black" points="65,-208 65,-260 431,-260 431,-208 65,-208"/>
</g>
<g id="clust3" class="cluster">
<title>cluster_RegionsModule_imports</title>
<polygon fill="none" stroke="black" points="214,-78 214,-130 450,-130 450,-78 214,-78"/>
</g>
<g id="clust6" class="cluster">
<title>cluster_RegionsModule_providers</title>
<polygon fill="none" stroke="black" points="46,-78 46,-130 206,-130 206,-78 46,-78"/>
</g>
<!-- RelationalRegionPersistenceModule -->
<g id="node1" class="node">
<title>RelationalRegionPersistenceModule</title>
<polygon fill="#8dd3c7" stroke="black" points="442.01,-122 439.01,-126 418.01,-126 415.01,-122 221.99,-122 221.99,-86 442.01,-86 442.01,-122"/>
<text text-anchor="middle" x="332" y="-99.8" font-family="Times,serif" font-size="14.00">RelationalRegionPersistenceModule</text>
</g>
<!-- RegionsModule -->
<g id="node2" class="node">
<title>RegionsModule</title>
<polygon fill="#8dd3c7" stroke="black" points="310.94,-187 307.94,-191 286.94,-191 283.94,-187 205.06,-187 205.06,-151 310.94,-151 310.94,-187"/>
<text text-anchor="middle" x="258" y="-164.8" font-family="Times,serif" font-size="14.00">RegionsModule</text>
</g>
<!-- RelationalRegionPersistenceModule&#45;&gt;RegionsModule -->
<g id="edge1" class="edge">
<title>RelationalRegionPersistenceModule&#45;&gt;RegionsModule</title>
<path fill="none" stroke="black" d="M266.23,-122.11C266.23,-122.11 266.23,-140.99 266.23,-140.99"/>
<polygon fill="black" stroke="black" points="262.73,-140.99 266.23,-150.99 269.73,-140.99 262.73,-140.99"/>
</g>
<!-- RegionsService  -->
<g id="node3" class="node">
<title>RegionsService </title>
<polygon fill="#fb8072" stroke="black" points="422.86,-252 315.14,-252 315.14,-216 422.86,-216 422.86,-252"/>
<text text-anchor="middle" x="369" y="-229.8" font-family="Times,serif" font-size="14.00">RegionsService </text>
</g>
<!-- RegionsModule&#45;&gt;RegionsService  -->
<g id="edge2" class="edge">
<title>RegionsModule&#45;&gt;RegionsService </title>
<path fill="none" stroke="black" stroke-dasharray="5,2" d="M303.86,-187.11C303.86,-206.34 303.86,-234 303.86,-234 303.86,-234 305.21,-234 305.21,-234"/>
<polygon fill="black" stroke="black" points="305.21,-237.5 315.21,-234 305.21,-230.5 305.21,-237.5"/>
</g>
<!-- RelationalRegionPersistenceModule  -->
<g id="node4" class="node">
<title>RelationalRegionPersistenceModule </title>
<polygon fill="#fb8072" stroke="black" points="297.01,-252 72.99,-252 72.99,-216 297.01,-216 297.01,-252"/>
<text text-anchor="middle" x="185" y="-229.8" font-family="Times,serif" font-size="14.00">RelationalRegionPersistenceModule </text>
</g>
<!-- RegionsModule&#45;&gt;RelationalRegionPersistenceModule  -->
<g id="edge3" class="edge">
<title>RegionsModule&#45;&gt;RelationalRegionPersistenceModule </title>
<path fill="none" stroke="black" stroke-dasharray="5,2" d="M251.14,-187.11C251.14,-187.11 251.14,-205.99 251.14,-205.99"/>
<polygon fill="black" stroke="black" points="247.64,-205.99 251.14,-215.99 254.64,-205.99 247.64,-205.99"/>
</g>
<!-- RegionsService -->
<g id="node5" class="node">
<title>RegionsService</title>
<ellipse fill="#fdb462" stroke="black" cx="126" cy="-104" rx="71.79" ry="18"/>
<text text-anchor="middle" x="126" y="-99.8" font-family="Times,serif" font-size="14.00">RegionsService</text>
</g>
<!-- RegionsService&#45;&gt;RegionsModule -->
<g id="edge4" class="edge">
<title>RegionsService&#45;&gt;RegionsModule</title>
<path fill="none" stroke="black" d="M197.87,-104C207.16,-104 213.51,-104 213.51,-104 213.51,-104 213.51,-140.89 213.51,-140.89"/>
<polygon fill="black" stroke="black" points="210.01,-140.89 213.51,-150.89 217.01,-140.89 210.01,-140.89"/>
</g>
</g>
</svg>
