<?xml version="1.0" encoding="UTF-8" standalone="no"?>
<!DOCTYPE svg PUBLIC "-//W3C//DTD SVG 1.1//EN"
 "http://www.w3.org/Graphics/SVG/1.1/DTD/svg11.dtd">
<!-- Generated by graphviz version 2.47.0 (20210316.0004)
 -->
<!-- Title: dependencies Pages: 1 -->
<svg width="504pt" height="284pt"
 viewBox="0.00 0.00 504.00 284.00" xmlns="http://www.w3.org/2000/svg" xmlns:xlink="http://www.w3.org/1999/xlink">
<g id="graph0" class="graph" transform="scale(1 1) rotate(0) translate(4 280)">
<title>dependencies</title>
<polygon fill="white" stroke="transparent" points="-4,4 -4,-280 500,-280 500,4 -4,4"/>
<text text-anchor="start" x="227.01" y="-42.4" font-family="Times-12" font-weight="bold" font-size="14.00">Legend</text>
<polygon fill="#ffffb3" stroke="transparent" points="14,-10 14,-30 34,-30 34,-10 14,-10"/>
<text text-anchor="start" x="37.63" y="-15.4" font-family="Times-12" font-size="14.00"> &#160;Declarations</text>
<polygon fill="#8dd3c7" stroke="transparent" points="127,-10 127,-30 147,-30 147,-10 127,-10"/>
<text text-anchor="start" x="150.73" y="-15.4" font-family="Times-12" font-size="14.00"> &#160;Module</text>
<polygon fill="#80b1d3" stroke="transparent" points="213,-10 213,-30 233,-30 233,-10 213,-10"/>
<text text-anchor="start" x="236.78" y="-15.4" font-family="Times-12" font-size="14.00"> &#160;Bootstrap</text>
<polygon fill="#fdb462" stroke="transparent" points="310,-10 310,-30 330,-30 330,-10 310,-10"/>
<text text-anchor="start" x="333.67" y="-15.4" font-family="Times-12" font-size="14.00"> &#160;Providers</text>
<polygon fill="#fb8072" stroke="transparent" points="406,-10 406,-30 426,-30 426,-10 406,-10"/>
<text text-anchor="start" x="429.73" y="-15.4" font-family="Times-12" font-size="14.00"> &#160;Exports</text>
<g id="clust1" class="cluster">
<title>cluster_FilesLocalModule</title>
<polygon fill="none" stroke="black" stroke-dasharray="1,5" points="151,-70 151,-268 345,-268 345,-70 151,-70"/>
</g>
<g id="clust4" class="cluster">
<title>cluster_FilesLocalModule_exports</title>
<polygon fill="none" stroke="black" points="180,-208 180,-260 316,-260 316,-208 180,-208"/>
</g>
<g id="clust6" class="cluster">
<title>cluster_FilesLocalModule_providers</title>
<polygon fill="none" stroke="black" points="159,-78 159,-130 337,-130 337,-78 159,-78"/>
</g>
<!-- FilesLocalService  -->
<g id="node1" class="node">
<title>FilesLocalService </title>
<polygon fill="#fb8072" stroke="black" points="308.07,-252 187.93,-252 187.93,-216 308.07,-216 308.07,-252"/>
<text text-anchor="middle" x="248" y="-229.8" font-family="Times,serif" font-size="14.00">FilesLocalService </text>
</g>
<!-- FilesLocalModule -->
<g id="node2" class="node">
<title>FilesLocalModule</title>
<polygon fill="#8dd3c7" stroke="black" points="307.15,-187 304.15,-191 283.15,-191 280.15,-187 188.85,-187 188.85,-151 307.15,-151 307.15,-187"/>
<text text-anchor="middle" x="248" y="-164.8" font-family="Times,serif" font-size="14.00">FilesLocalModule</text>
</g>
<!-- FilesLocalModule&#45;&gt;FilesLocalService  -->
<g id="edge1" class="edge">
<title>FilesLocalModule&#45;&gt;FilesLocalService </title>
<path fill="none" stroke="black" stroke-dasharray="5,2" d="M248,-187.11C248,-187.11 248,-205.99 248,-205.99"/>
<polygon fill="black" stroke="black" points="244.5,-205.99 248,-215.99 251.5,-205.99 244.5,-205.99"/>
</g>
<!-- FilesLocalService -->
<g id="node3" class="node">
<title>FilesLocalService</title>
<ellipse fill="#fdb462" stroke="black" cx="248" cy="-104" rx="80.51" ry="18"/>
<text text-anchor="middle" x="248" y="-99.8" font-family="Times,serif" font-size="14.00">FilesLocalService</text>
</g>
<!-- FilesLocalService&#45;&gt;FilesLocalModule -->
<g id="edge2" class="edge">
<title>FilesLocalService&#45;&gt;FilesLocalModule</title>
<path fill="none" stroke="black" d="M248,-122.11C248,-122.11 248,-140.99 248,-140.99"/>
<polygon fill="black" stroke="black" points="244.5,-140.99 248,-150.99 251.5,-140.99 244.5,-140.99"/>
</g>
</g>
</svg>
