<?xml version="1.0" encoding="UTF-8" standalone="no"?>
<!DOCTYPE svg PUBLIC "-//W3C//DTD SVG 1.1//EN"
 "http://www.w3.org/Graphics/SVG/1.1/DTD/svg11.dtd">
<!-- Generated by graphviz version 2.47.0 (20210316.0004)
 -->
<!-- Title: dependencies Pages: 1 -->
<svg width="504pt" height="284pt"
 viewBox="0.00 0.00 504.00 284.00" xmlns="http://www.w3.org/2000/svg" xmlns:xlink="http://www.w3.org/1999/xlink">
<g id="graph0" class="graph" transform="scale(1 1) rotate(0) translate(4 280)">
<title>dependencies</title>
<polygon fill="white" stroke="transparent" points="-4,4 -4,-280 500,-280 500,4 -4,4"/>
<text text-anchor="start" x="227.01" y="-42.4" font-family="Times-12" font-weight="bold" font-size="14.00">Legend</text>
<polygon fill="#ffffb3" stroke="transparent" points="14,-10 14,-30 34,-30 34,-10 14,-10"/>
<text text-anchor="start" x="37.63" y="-15.4" font-family="Times-12" font-size="14.00"> &#160;Declarations</text>
<polygon fill="#8dd3c7" stroke="transparent" points="127,-10 127,-30 147,-30 147,-10 127,-10"/>
<text text-anchor="start" x="150.73" y="-15.4" font-family="Times-12" font-size="14.00"> &#160;Module</text>
<polygon fill="#80b1d3" stroke="transparent" points="213,-10 213,-30 233,-30 233,-10 213,-10"/>
<text text-anchor="start" x="236.78" y="-15.4" font-family="Times-12" font-size="14.00"> &#160;Bootstrap</text>
<polygon fill="#fdb462" stroke="transparent" points="310,-10 310,-30 330,-30 330,-10 310,-10"/>
<text text-anchor="start" x="333.67" y="-15.4" font-family="Times-12" font-size="14.00"> &#160;Providers</text>
<polygon fill="#fb8072" stroke="transparent" points="406,-10 406,-30 426,-30 426,-10 406,-10"/>
<text text-anchor="start" x="429.73" y="-15.4" font-family="Times-12" font-size="14.00"> &#160;Exports</text>
<g id="clust1" class="cluster">
<title>cluster_AccountSeedModule</title>
<polygon fill="none" stroke="black" stroke-dasharray="1,5" points="141,-70 141,-268 355,-268 355,-70 141,-70"/>
</g>
<g id="clust4" class="cluster">
<title>cluster_AccountSeedModule_exports</title>
<polygon fill="none" stroke="black" points="172,-208 172,-260 324,-260 324,-208 172,-208"/>
</g>
<g id="clust6" class="cluster">
<title>cluster_AccountSeedModule_providers</title>
<polygon fill="none" stroke="black" points="149,-78 149,-130 347,-130 347,-78 149,-78"/>
</g>
<!-- AccountSeedService  -->
<g id="node1" class="node">
<title>AccountSeedService </title>
<polygon fill="#fb8072" stroke="black" points="316.12,-252 179.88,-252 179.88,-216 316.12,-216 316.12,-252"/>
<text text-anchor="middle" x="248" y="-229.8" font-family="Times,serif" font-size="14.00">AccountSeedService </text>
</g>
<!-- AccountSeedModule -->
<g id="node2" class="node">
<title>AccountSeedModule</title>
<polygon fill="#8dd3c7" stroke="black" points="315.19,-187 312.19,-191 291.19,-191 288.19,-187 180.81,-187 180.81,-151 315.19,-151 315.19,-187"/>
<text text-anchor="middle" x="248" y="-164.8" font-family="Times,serif" font-size="14.00">AccountSeedModule</text>
</g>
<!-- AccountSeedModule&#45;&gt;AccountSeedService  -->
<g id="edge1" class="edge">
<title>AccountSeedModule&#45;&gt;AccountSeedService </title>
<path fill="none" stroke="black" stroke-dasharray="5,2" d="M248,-187.11C248,-187.11 248,-205.99 248,-205.99"/>
<polygon fill="black" stroke="black" points="244.5,-205.99 248,-215.99 251.5,-205.99 244.5,-205.99"/>
</g>
<!-- AccountSeedService -->
<g id="node3" class="node">
<title>AccountSeedService</title>
<ellipse fill="#fdb462" stroke="black" cx="248" cy="-104" rx="91.45" ry="18"/>
<text text-anchor="middle" x="248" y="-99.8" font-family="Times,serif" font-size="14.00">AccountSeedService</text>
</g>
<!-- AccountSeedService&#45;&gt;AccountSeedModule -->
<g id="edge2" class="edge">
<title>AccountSeedService&#45;&gt;AccountSeedModule</title>
<path fill="none" stroke="black" d="M248,-122.11C248,-122.11 248,-140.99 248,-140.99"/>
<polygon fill="black" stroke="black" points="244.5,-140.99 248,-150.99 251.5,-140.99 244.5,-140.99"/>
</g>
</g>
</svg>
